<svg width="993" height="498" viewBox="0 0 993 498" fill="none" xmlns="http://www.w3.org/2000/svg">
<path d="M144.619 124H344.619C344.619 97.4784 360.423 72.043 388.553 53.2893C416.684 34.5357 454.837 24 494.619 24C534.402 24 572.555 34.5357 600.685 53.2893C628.816 72.043 644.619 97.4784 644.619 124H844.619V149.5C864.511 149.5 892.097 152 915.619 163.5C938.119 174.5 962.119 203.5 968.119 241.5C972.119 288 956.135 312.5 938.119 333C912.195 362.5 864.511 369 844.619 369V474H144.619" stroke="#D35400" stroke-width="48" stroke-linejoin="round"/>
<path d="M144.619 124H344.619C344.619 97.4784 360.423 72.043 388.553 53.2893C416.684 34.5357 454.837 24 494.619 24C534.402 24 572.555 34.5357 600.685 53.2893C628.816 72.043 644.619 97.4784 644.619 124H844.619V148.5C893.619 148.5 920.145 161.526 936.619 178C947.119 188.5 970.119 219.848 970.119 253C970.119 299 950.227 320.5 936.619 335C906.119 367.5 864.511 368.5 844.619 368.5V474H144.619" stroke="#E67E22" stroke-width="40" stroke-linejoin="round"/>
<path d="M146.619 126H346.619C346.619 99.4784 362.423 74.043 390.553 55.2893C418.684 36.5357 456.837 26 496.619 26C536.402 26 574.555 36.5357 602.685 55.2893C630.816 74.043 646.619 99.4784 646.619 126H846.619V147C866.511 147 901.119 154 927.119 173.5C942.119 184.75 963.619 205 966.619 244C970.619 296 954.119 315.938 927.119 339C903.119 359.5 866.511 366 846.619 366V476H146.619" stroke="#B33939" stroke-width="18" stroke-linecap="round"/>
<path d="M144.619 124H344.619C344.619 97.4784 360.423 72.043 388.553 53.2893C416.684 34.5357 454.837 24 494.619 24C534.402 24 572.555 34.5357 600.685 53.2893C628.816 72.043 644.619 97.4784 644.619 124H844.619V151C864.511 151 896.152 155.5 918.119 171.5C944.119 190.438 964.619 215 964.619 252C964.619 307 940.966 326.484 913.119 344C882.119 363.5 864.511 363.5 844.619 363.5V474H144.619" stroke="#F1C40F" stroke-width="16" stroke-linecap="round"/>
<path d="M141.619 121H341.619C341.619 94.4784 357.423 69.043 385.553 50.2893C413.684 31.5357 451.837 21 491.619 21C531.402 21 569.555 31.5357 597.685 50.2893C625.816 69.043 641.619 94.4784 641.619 121H841.619V147C861.511 147 908.516 169.621 929.619 187C946.619 201 961.119 214.5 964.619 252.5C960.119 298.5 946.619 311 925.119 333C911.054 356.442 861.511 364 841.619 364V471H141.619" stroke="white" stroke-opacity="0.6" stroke-width="6" stroke-linecap="round"/>
<path d="M344.619 124C344.619 97.4784 360.423 72.043 388.553 53.2893C416.684 34.5357 454.837 24 494.619 24C534.402 24 572.555 34.5357 600.685 53.2893C628.816 72.043 644.619 97.4784 644.619 124H344.619Z" fill="url(#paint0_radial_4_454)" stroke="#DC2626" stroke-width="12" stroke-linejoin="round"/>
<path d="M844.619 124H144.619V474H844.619V124Z" fill="black" stroke="#DC2626" stroke-width="12" stroke-linejoin="round"/>
<path d="M141.619 121H341.619C341.619 94.4784 357.423 69.043 385.553 50.2893C413.684 31.5357 451.837 21 491.619 21C531.402 21 569.555 31.5357 597.685 50.2893C625.816 69.043 641.619 94.4784 641.619 121H841.619V147C861.511 147 908.516 169.621 929.619 187C946.619 201 961.119 214.5 964.619 252.5C960.119 298.5 946.619 311 925.119 333C911.054 356.442 861.511 364 841.619 364V471H141.619" stroke="white" stroke-opacity="0.6" stroke-width="6" stroke-linecap="round"/>
<path d="M144.619 124H344.619C344.619 97.4784 360.423 72.043 388.553 53.2893C416.684 34.5357 454.837 24 494.619 24C534.402 24 572.555 34.5357 600.685 53.2893C628.816 72.043 644.619 97.4784 644.619 124H844.619V148.5C893.619 148.5 920.145 161.526 936.619 178C947.119 188.5 970.119 219.848 970.119 253C970.119 299 950.227 320.5 936.619 335C906.119 367.5 864.511 368.5 844.619 368.5V474H144.619" stroke="#E67E22" stroke-width="40" stroke-linejoin="round"/>
<path d="M144.619 124H344.619C344.619 97.4784 360.423 72.043 388.553 53.2893C416.684 34.5357 454.837 24 494.619 24C534.402 24 572.555 34.5357 600.685 53.2893C628.816 72.043 644.619 97.4784 644.619 124H844.619V149.5C864.511 149.5 892.097 152 915.619 163.5C938.119 174.5 962.119 203.5 968.119 241.5C972.119 288 956.135 312.5 938.119 333C912.195 362.5 864.511 369 844.619 369V474H144.619" stroke="#D35400" stroke-width="48" stroke-linejoin="round"/>
<path d="M144.619 124H344.619C344.619 97.4784 360.423 72.043 388.553 53.2893C416.684 34.5357 454.837 24 494.619 24C534.402 24 572.555 34.5357 600.685 53.2893C628.816 72.043 644.619 97.4784 644.619 124H844.619V151C864.511 151 896.152 155.5 918.119 171.5C944.119 190.438 964.619 215 964.619 252C964.619 307 940.966 326.484 913.119 344C882.119 363.5 864.511 363.5 844.619 363.5V474H144.619" stroke="#F1C40F" stroke-width="16" stroke-linecap="round"/>
<path d="M146.619 126H346.619C346.619 99.4784 362.423 74.043 390.553 55.2893C418.684 36.5357 456.837 26 496.619 26C536.402 26 574.555 36.5357 602.685 55.2893C630.816 74.043 646.619 99.4784 646.619 126H846.619V147C866.511 147 901.119 154 927.119 173.5C942.119 184.75 963.619 205 966.619 244C970.619 296 954.119 315.938 927.119 339C903.119 359.5 866.511 366 846.619 366V476H146.619" stroke="#B33939" stroke-width="18" stroke-linecap="round"/>
<path d="M845.119 150.5C876.68 150.5 906.948 161.721 929.265 181.693C951.582 201.666 964.119 228.754 964.119 257C964.119 285.246 951.582 312.334 929.265 332.307C906.948 352.279 876.68 363.5 845.119 363.5V150.5Z" fill="url(#paint1_radial_4_454)" stroke="#DC2626" stroke-width="12" stroke-linejoin="round"/>
<path d="M845.119 150.5C876.68 150.5 906.948 161.721 929.265 181.693C951.582 201.666 964.119 228.754 964.119 257C964.119 285.246 951.582 312.334 929.265 332.307C906.948 352.279 876.68 363.5 845.119 363.5V150.5Z" fill="url(#paint2_radial_4_454)" stroke="#DC2626" stroke-width="12" stroke-linejoin="round"/>
<path d="M344.619 124C344.619 97.4784 360.423 72.043 388.553 53.2893C416.684 34.5357 454.837 24 494.619 24C534.402 24 572.555 34.5357 600.685 53.2893C628.816 72.043 644.619 97.4784 644.619 124H344.619Z" fill="url(#paint3_radial_4_454)" stroke="#DC2626" stroke-width="12" stroke-linejoin="round"/>
<path d="M844.619 124H144.619V474H844.619V124Z" fill="black" stroke="#DC2626" stroke-width="12" stroke-linejoin="round"/>
<path d="M848.119 124H648.119C648.119 97.4784 632.316 72.043 604.185 53.2893C576.055 34.5357 537.902 24 498.119 24C458.337 24 420.184 34.5357 392.053 53.2893C363.923 72.043 348.119 97.4784 348.119 124H148.119V149.5C128.228 149.5 100.642 152 77.1194 163.5C54.6194 174.5 30.6194 203.5 24.6194 241.5C20.6194 288 36.6042 312.5 54.6194 333C80.5436 362.5 128.228 369 148.119 369V474H848.119" stroke="#D35400" stroke-width="48" stroke-linejoin="round"/>
<path d="M848.119 124H648.119C648.119 97.4784 632.316 72.043 604.185 53.2893C576.055 34.5357 537.902 24 498.119 24C458.337 24 420.184 34.5357 392.053 53.2893C363.923 72.043 348.119 97.4784 348.119 124H148.119V148.5C99.1194 148.5 72.5938 161.526 56.1194 178C45.6194 188.5 22.6194 219.848 22.6194 253C22.6194 299 42.5117 320.5 56.1194 335C86.6194 367.5 128.228 368.5 148.119 368.5V474H848.119" stroke="#E67E22" stroke-width="40" stroke-linejoin="round"/>
<path d="M846.119 126H646.119C646.119 99.4784 630.316 74.043 602.185 55.2893C574.055 36.5357 535.902 26 496.119 26C456.337 26 418.184 36.5357 390.053 55.2893C361.923 74.043 346.119 99.4784 346.119 126H146.119V147C126.228 147 91.6194 154 65.6194 173.5C50.6194 184.75 29.1194 205 26.1194 244C22.1194 296 38.6194 315.938 65.6194 339C89.6194 359.5 126.228 366 146.119 366V476H846.119" stroke="#B33939" stroke-width="18" stroke-linecap="round"/>
<path d="M848.119 124H648.119C648.119 97.4784 632.316 72.043 604.185 53.2893C576.055 34.5357 537.902 24 498.119 24C458.337 24 420.184 34.5357 392.053 53.2893C363.923 72.043 348.119 97.4784 348.119 124H148.119V151C128.228 151 96.5864 155.5 74.6194 171.5C48.6194 190.438 28.1194 215 28.1194 252C28.1194 307 51.7729 326.484 79.6194 344C110.619 363.5 128.228 363.5 148.119 363.5V474H848.119" stroke="#F1C40F" stroke-width="16" stroke-linecap="round"/>
<path d="M851.119 121H651.119C651.119 94.4784 635.316 69.043 607.185 50.2893C579.055 31.5357 540.902 21 501.119 21C461.337 21 423.184 31.5357 395.053 50.2893C366.923 69.043 351.119 94.4784 351.119 121H151.119V147C131.228 147 84.2223 169.621 63.1194 187C46.1194 201 31.6194 214.5 28.1194 252.5C32.6194 298.5 46.1194 311 67.6194 333C81.6846 356.442 131.228 364 151.119 364V471H851.119" stroke="white" stroke-opacity="0.6" stroke-width="6" stroke-linecap="round"/>
<path d="M648.119 124C648.119 97.4784 632.316 72.043 604.185 53.2893C576.055 34.5357 537.902 24 498.119 24C458.337 24 420.184 34.5357 392.053 53.2893C363.923 72.043 348.119 97.4784 348.119 124H648.119Z" fill="url(#paint4_radial_4_454)" stroke="#DC2626" stroke-width="12" stroke-linejoin="round"/>
<path d="M148.119 124H848.119V474H148.119V124Z" fill="black" stroke="#DC2626" stroke-width="12" stroke-linejoin="round"/>
<path d="M851.119 121H651.119C651.119 94.4784 635.316 69.043 607.185 50.2893C579.055 31.5357 540.902 21 501.119 21C461.337 21 423.184 31.5357 395.053 50.2893C366.923 69.043 351.119 94.4784 351.119 121H151.119V147C131.228 147 84.2223 169.621 63.1194 187C46.1194 201 31.6194 214.5 28.1194 252.5C32.6194 298.5 46.1194 311 67.6194 333C81.6846 356.442 131.228 364 151.119 364V471H851.119" stroke="white" stroke-opacity="0.6" stroke-width="6" stroke-linecap="round"/>
<path d="M848.119 124H648.119C648.119 97.4784 632.316 72.043 604.185 53.2893C576.055 34.5357 537.902 24 498.119 24C458.337 24 420.184 34.5357 392.053 53.2893C363.923 72.043 348.119 97.4784 348.119 124H148.119V148.5C99.1194 148.5 72.5938 161.526 56.1194 178C45.6194 188.5 22.6194 219.848 22.6194 253C22.6194 299 42.5117 320.5 56.1194 335C86.6194 367.5 128.228 368.5 148.119 368.5V474H848.119" stroke="#E67E22" stroke-width="40" stroke-linejoin="round"/>
<path d="M848.119 124H648.119C648.119 97.4784 632.316 72.043 604.185 53.2893C576.055 34.5357 537.902 24 498.119 24C458.337 24 420.184 34.5357 392.053 53.2893C363.923 72.043 348.119 97.4784 348.119 124H148.119V149.5C128.228 149.5 100.642 152 77.1194 163.5C54.6194 174.5 30.6194 203.5 24.6194 241.5C20.6194 288 36.6042 312.5 54.6194 333C80.5436 362.5 128.228 369 148.119 369V474H848.119" stroke="#D35400" stroke-width="48" stroke-linejoin="round"/>
<path d="M848.119 124H648.119C648.119 97.4784 632.316 72.043 604.185 53.2893C576.055 34.5357 537.902 24 498.119 24C458.337 24 420.184 34.5357 392.053 53.2893C363.923 72.043 348.119 97.4784 348.119 124H148.119V151C128.228 151 96.5864 155.5 74.6194 171.5C48.6194 190.438 28.1194 215 28.1194 252C28.1194 307 51.7729 326.484 79.6194 344C110.619 363.5 128.228 363.5 148.119 363.5V474H848.119" stroke="#F1C40F" stroke-width="16" stroke-linecap="round"/>
<path d="M846.119 126H646.119C646.119 99.4784 630.316 74.043 602.185 55.2893C574.055 36.5357 535.902 26 496.119 26C456.337 26 418.184 36.5357 390.053 55.2893C361.923 74.043 346.119 99.4784 346.119 126H146.119V147C126.228 147 91.6194 154 65.6194 173.5C50.6194 184.75 29.1194 205 26.1194 244C22.1194 296 38.6194 315.938 65.6194 339C89.6194 359.5 126.228 366 146.119 366V476H846.119" stroke="#B33939" stroke-width="18" stroke-linecap="round"/>
<path d="M147.619 150.5C116.059 150.5 85.7905 161.721 63.4737 181.693C41.1568 201.666 28.6194 228.754 28.6194 257C28.6194 285.246 41.1568 312.334 63.4737 332.307C85.7905 352.279 116.059 363.5 147.619 363.5V150.5Z" fill="url(#paint5_radial_4_454)" stroke="#DC2626" stroke-width="12" stroke-linejoin="round"/>
<path d="M147.619 150.5C116.059 150.5 85.7905 161.721 63.4737 181.693C41.1568 201.666 28.6194 228.754 28.6194 257C28.6194 285.246 41.1568 312.334 63.4737 332.307C85.7905 352.279 116.059 363.5 147.619 363.5V150.5Z" fill="url(#paint6_radial_4_454)" stroke="#DC2626" stroke-width="12" stroke-linejoin="round"/>
<path d="M648.119 124C648.119 97.4784 632.316 72.043 604.185 53.2893C576.055 34.5357 537.902 24 498.119 24C458.337 24 420.184 34.5357 392.053 53.2893C363.923 72.043 348.119 97.4784 348.119 124H648.119Z" fill="url(#paint7_radial_4_454)" stroke="#DC2626" stroke-width="12" stroke-linejoin="round"/>
<path d="M148.119 124H848.119V474H148.119V124Z" fill="black" stroke="#DC2626" stroke-width="12" stroke-linejoin="round"/>
<path d="M852.007 470.812C858.28 470.813 863.369 475.945 863.369 482.281C863.369 488.617 858.28 493.75 852.007 493.75C845.733 493.75 840.644 488.617 840.644 482.281C840.644 475.945 845.733 470.812 852.007 470.812Z" fill="#655937" stroke="black" stroke-width="0.5"/>
<path d="M851.233 469.25C857.506 469.25 862.595 474.383 862.595 480.719C862.595 487.055 857.506 492.187 851.233 492.188C844.959 492.188 839.869 487.055 839.869 480.719C839.869 474.383 844.959 469.25 851.233 469.25Z" fill="url(#paint8_linear_4_454)" stroke="black" stroke-width="0.5"/>
<path d="M818.007 470.812C824.28 470.813 829.369 475.945 829.369 482.281C829.369 488.617 824.28 493.75 818.007 493.75C811.733 493.75 806.644 488.617 806.644 482.281C806.644 475.945 811.733 470.812 818.007 470.812Z" fill="#655937" stroke="black" stroke-width="0.5"/>
<path d="M817.233 469.25C823.506 469.25 828.595 474.383 828.595 480.719C828.595 487.055 823.506 492.187 817.233 492.188C810.959 492.188 805.869 487.055 805.869 480.719C805.869 474.383 810.959 469.25 817.233 469.25Z" fill="url(#paint9_linear_4_454)" stroke="black" stroke-width="0.5"/>
<path d="M818.007 470.812C824.28 470.813 829.369 475.945 829.369 482.281C829.369 488.617 824.28 493.75 818.007 493.75C811.733 493.75 806.644 488.617 806.644 482.281C806.644 475.945 811.733 470.812 818.007 470.812Z" fill="#655937" stroke="black" stroke-width="0.5"/>
<path d="M817.233 469.25C823.506 469.25 828.595 474.383 828.595 480.719C828.595 487.055 823.506 492.187 817.233 492.188C810.959 492.188 805.869 487.055 805.869 480.719C805.869 474.383 810.959 469.25 817.233 469.25Z" fill="url(#paint10_linear_4_454)" stroke="black" stroke-width="0.5"/>
<path d="M784.007 470.812C790.28 470.813 795.369 475.945 795.369 482.281C795.369 488.617 790.28 493.75 784.007 493.75C777.733 493.75 772.644 488.617 772.644 482.281C772.644 475.945 777.733 470.812 784.007 470.812Z" fill="#655937" stroke="black" stroke-width="0.5"/>
<path d="M783.233 469.25C789.506 469.25 794.595 474.383 794.595 480.719C794.595 487.055 789.506 492.187 783.233 492.188C776.959 492.188 771.869 487.055 771.869 480.719C771.869 474.383 776.959 469.25 783.233 469.25Z" fill="url(#paint11_linear_4_454)" stroke="black" stroke-width="0.5"/>
<path d="M784.007 470.812C790.28 470.813 795.369 475.945 795.369 482.281C795.369 488.617 790.28 493.75 784.007 493.75C777.733 493.75 772.644 488.617 772.644 482.281C772.644 475.945 777.733 470.812 784.007 470.812Z" fill="#655937" stroke="black" stroke-width="0.5"/>
<path d="M783.233 469.25C789.506 469.25 794.595 474.383 794.595 480.719C794.595 487.055 789.506 492.187 783.233 492.188C776.959 492.188 771.869 487.055 771.869 480.719C771.869 474.383 776.959 469.25 783.233 469.25Z" fill="url(#paint12_linear_4_454)" stroke="black" stroke-width="0.5"/>
<path d="M750.007 470.812C756.28 470.813 761.369 475.945 761.369 482.281C761.369 488.617 756.28 493.75 750.007 493.75C743.733 493.75 738.644 488.617 738.644 482.281C738.644 475.945 743.733 470.812 750.007 470.812Z" fill="#655937" stroke="black" stroke-width="0.5"/>
<path d="M749.233 469.25C755.506 469.25 760.595 474.383 760.595 480.719C760.595 487.055 755.506 492.187 749.233 492.188C742.959 492.188 737.869 487.055 737.869 480.719C737.869 474.383 742.959 469.25 749.233 469.25Z" fill="url(#paint13_linear_4_454)" stroke="black" stroke-width="0.5"/>
<path d="M750.007 470.812C756.28 470.813 761.369 475.945 761.369 482.281C761.369 488.617 756.28 493.75 750.007 493.75C743.733 493.75 738.644 488.617 738.644 482.281C738.644 475.945 743.733 470.812 750.007 470.812Z" fill="#655937" stroke="black" stroke-width="0.5"/>
<path d="M749.233 469.25C755.506 469.25 760.595 474.383 760.595 480.719C760.595 487.055 755.506 492.187 749.233 492.188C742.959 492.188 737.869 487.055 737.869 480.719C737.869 474.383 742.959 469.25 749.233 469.25Z" fill="url(#paint14_linear_4_454)" stroke="black" stroke-width="0.5"/>
<path d="M716.007 470.812C722.28 470.813 727.369 475.945 727.369 482.281C727.369 488.617 722.28 493.75 716.007 493.75C709.733 493.75 704.644 488.617 704.644 482.281C704.644 475.945 709.733 470.812 716.007 470.812Z" fill="#655937" stroke="black" stroke-width="0.5"/>
<path d="M715.233 469.25C721.506 469.25 726.595 474.383 726.595 480.719C726.595 487.055 721.506 492.187 715.233 492.188C708.959 492.188 703.869 487.055 703.869 480.719C703.869 474.383 708.959 469.25 715.233 469.25Z" fill="url(#paint15_linear_4_454)" stroke="black" stroke-width="0.5"/>
<path d="M682.007 470.812C688.28 470.813 693.369 475.945 693.369 482.281C693.369 488.617 688.28 493.75 682.007 493.75C675.733 493.75 670.644 488.617 670.644 482.281C670.644 475.945 675.733 470.812 682.007 470.812Z" fill="#655937" stroke="black" stroke-width="0.5"/>
<path d="M681.233 469.25C687.506 469.25 692.595 474.383 692.595 480.719C692.595 487.055 687.506 492.187 681.233 492.188C674.959 492.188 669.869 487.055 669.869 480.719C669.869 474.383 674.959 469.25 681.233 469.25Z" fill="url(#paint16_linear_4_454)" stroke="black" stroke-width="0.5"/>
<path d="M648.007 470.812C654.28 470.813 659.369 475.945 659.369 482.281C659.369 488.617 654.28 493.75 648.007 493.75C641.733 493.75 636.644 488.617 636.644 482.281C636.644 475.945 641.733 470.812 648.007 470.812Z" fill="#655937" stroke="black" stroke-width="0.5"/>
<path d="M647.233 469.25C653.506 469.25 658.595 474.383 658.595 480.719C658.595 487.055 653.506 492.187 647.233 492.188C640.959 492.188 635.869 487.055 635.869 480.719C635.869 474.383 640.959 469.25 647.233 469.25Z" fill="url(#paint17_linear_4_454)" stroke="black" stroke-width="0.5"/>
<path d="M648.007 470.812C654.28 470.813 659.369 475.945 659.369 482.281C659.369 488.617 654.28 493.75 648.007 493.75C641.733 493.75 636.644 488.617 636.644 482.281C636.644 475.945 641.733 470.812 648.007 470.812Z" fill="#655937" stroke="black" stroke-width="0.5"/>
<path d="M647.233 469.25C653.506 469.25 658.595 474.383 658.595 480.719C658.595 487.055 653.506 492.187 647.233 492.188C640.959 492.188 635.869 487.055 635.869 480.719C635.869 474.383 640.959 469.25 647.233 469.25Z" fill="url(#paint18_linear_4_454)" stroke="black" stroke-width="0.5"/>
<path d="M614.007 470.812C620.28 470.813 625.369 475.945 625.369 482.281C625.369 488.617 620.28 493.75 614.007 493.75C607.733 493.75 602.644 488.617 602.644 482.281C602.644 475.945 607.733 470.812 614.007 470.812Z" fill="#655937" stroke="black" stroke-width="0.5"/>
<path d="M613.233 469.25C619.506 469.25 624.595 474.383 624.595 480.719C624.595 487.055 619.506 492.187 613.233 492.188C606.959 492.188 601.869 487.055 601.869 480.719C601.869 474.383 606.959 469.25 613.233 469.25Z" fill="url(#paint19_linear_4_454)" stroke="black" stroke-width="0.5"/>
<path d="M580.007 470.812C586.28 470.813 591.369 475.945 591.369 482.281C591.369 488.617 586.28 493.75 580.007 493.75C573.733 493.75 568.644 488.617 568.644 482.281C568.644 475.945 573.733 470.812 580.007 470.812Z" fill="#655937" stroke="black" stroke-width="0.5"/>
<path d="M579.233 469.25C585.506 469.25 590.595 474.383 590.595 480.719C590.595 487.055 585.506 492.187 579.233 492.188C572.959 492.188 567.869 487.055 567.869 480.719C567.869 474.383 572.959 469.25 579.233 469.25Z" fill="url(#paint20_linear_4_454)" stroke="black" stroke-width="0.5"/>
<path d="M546.007 470.812C552.28 470.813 557.369 475.945 557.369 482.281C557.369 488.617 552.28 493.75 546.007 493.75C539.733 493.75 534.644 488.617 534.644 482.281C534.644 475.945 539.733 470.812 546.007 470.812Z" fill="#655937" stroke="black" stroke-width="0.5"/>
<path d="M545.233 469.25C551.506 469.25 556.595 474.383 556.595 480.719C556.595 487.055 551.506 492.187 545.233 492.188C538.959 492.188 533.869 487.055 533.869 480.719C533.869 474.383 538.959 469.25 545.233 469.25Z" fill="url(#paint21_linear_4_454)" stroke="black" stroke-width="0.5"/>
<path d="M512.007 470.812C518.28 470.813 523.369 475.945 523.369 482.281C523.369 488.617 518.28 493.75 512.007 493.75C505.733 493.75 500.644 488.617 500.644 482.281C500.644 475.945 505.733 470.812 512.007 470.812Z" fill="#655937" stroke="black" stroke-width="0.5"/>
<path d="M511.233 469.25C517.506 469.25 522.595 474.383 522.595 480.719C522.595 487.055 517.506 492.187 511.233 492.188C504.959 492.188 499.869 487.055 499.869 480.719C499.869 474.383 504.959 469.25 511.233 469.25Z" fill="url(#paint22_linear_4_454)" stroke="black" stroke-width="0.5"/>
<path d="M478.007 470.812C484.28 470.813 489.369 475.945 489.369 482.281C489.369 488.617 484.28 493.75 478.007 493.75C471.733 493.75 466.644 488.617 466.644 482.281C466.644 475.945 471.733 470.812 478.007 470.812Z" fill="#655937" stroke="black" stroke-width="0.5"/>
<path d="M477.233 469.25C483.506 469.25 488.595 474.383 488.595 480.719C488.595 487.055 483.506 492.187 477.233 492.188C470.959 492.188 465.869 487.055 465.869 480.719C465.869 474.383 470.959 469.25 477.233 469.25Z" fill="url(#paint23_linear_4_454)" stroke="black" stroke-width="0.5"/>
<path d="M444.007 470.812C450.28 470.813 455.369 475.945 455.369 482.281C455.369 488.617 450.28 493.75 444.007 493.75C437.733 493.75 432.644 488.617 432.644 482.281C432.644 475.945 437.733 470.812 444.007 470.812Z" fill="#655937" stroke="black" stroke-width="0.5"/>
<path d="M443.233 469.25C449.506 469.25 454.595 474.383 454.595 480.719C454.595 487.055 449.506 492.187 443.233 492.188C436.959 492.188 431.869 487.055 431.869 480.719C431.869 474.383 436.959 469.25 443.233 469.25Z" fill="url(#paint24_linear_4_454)" stroke="black" stroke-width="0.5"/>
<path d="M549.007 105.812C555.28 105.813 560.369 110.945 560.369 117.281C560.369 123.617 555.28 128.75 549.007 128.75C542.733 128.75 537.644 123.617 537.644 117.281C537.644 110.945 542.733 105.812 549.007 105.812Z" fill="#655937" stroke="black" stroke-width="0.5"/>
<path d="M548.233 104.25C554.506 104.25 559.595 109.383 559.595 115.719C559.595 122.055 554.506 127.187 548.233 127.188C541.959 127.188 536.869 122.055 536.869 115.719C536.869 109.383 541.959 104.25 548.233 104.25Z" fill="url(#paint25_linear_4_454)" stroke="black" stroke-width="0.5"/>
<path d="M515.007 105.812C521.28 105.813 526.369 110.945 526.369 117.281C526.369 123.617 521.28 128.75 515.007 128.75C508.733 128.75 503.644 123.617 503.644 117.281C503.644 110.945 508.733 105.812 515.007 105.812Z" fill="#655937" stroke="black" stroke-width="0.5"/>
<path d="M514.233 104.25C520.506 104.25 525.595 109.383 525.595 115.719C525.595 122.055 520.506 127.187 514.233 127.188C507.959 127.188 502.869 122.055 502.869 115.719C502.869 109.383 507.959 104.25 514.233 104.25Z" fill="url(#paint26_linear_4_454)" stroke="black" stroke-width="0.5"/>
<path d="M645.619 117C645.619 117 578.462 117 495.619 117C412.777 117 345.619 117 345.619 117C345.619 117 372.374 19 495.619 19C629.391 19 645.619 117 645.619 117Z" fill="url(#paint27_linear_4_454)"/>
<path d="M481.007 105.812C487.28 105.813 492.369 110.945 492.369 117.281C492.369 123.617 487.28 128.75 481.007 128.75C474.733 128.75 469.644 123.617 469.644 117.281C469.644 110.945 474.733 105.812 481.007 105.812Z" fill="#655937" stroke="black" stroke-width="0.5"/>
<path d="M480.233 104.25C486.506 104.25 491.595 109.383 491.595 115.719C491.595 122.055 486.506 127.187 480.233 127.188C473.959 127.188 468.869 122.055 468.869 115.719C468.869 109.383 473.959 104.25 480.233 104.25Z" fill="url(#paint28_linear_4_454)" stroke="black" stroke-width="0.5"/>
<path d="M852.635 361.463C852.635 361.463 853.314 315.093 854.151 257.893C854.989 200.694 855.667 154.324 855.667 154.324C855.667 154.324 960.381 174.334 959.135 259.43C957.783 351.795 852.635 361.463 852.635 361.463Z" fill="url(#paint29_linear_4_454)"/>
<path d="M139.636 363.139C139.636 363.139 138.957 316.77 138.12 259.57C137.282 202.37 136.604 156 136.604 156C136.604 156 31.8898 176.01 33.1355 261.107C34.4876 353.471 139.636 363.139 139.636 363.139Z" fill="url(#paint30_linear_4_454)"/>
<path d="M447.007 105.812C453.28 105.813 458.369 110.945 458.369 117.281C458.369 123.617 453.28 128.75 447.007 128.75C440.733 128.75 435.644 123.617 435.644 117.281C435.644 110.945 440.733 105.812 447.007 105.812Z" fill="#655937" stroke="black" stroke-width="0.5"/>
<path d="M446.233 104.25C452.506 104.25 457.595 109.383 457.595 115.719C457.595 122.055 452.506 127.187 446.233 127.188C439.959 127.188 434.869 122.055 434.869 115.719C434.869 109.383 439.959 104.25 446.233 104.25Z" fill="url(#paint31_linear_4_454)" stroke="black" stroke-width="0.5"/>
<path d="M413.007 105.812C419.28 105.813 424.369 110.945 424.369 117.281C424.369 123.617 419.28 128.75 413.007 128.75C406.733 128.75 401.644 123.617 401.644 117.281C401.644 110.945 406.733 105.812 413.007 105.812Z" fill="#655937" stroke="black" stroke-width="0.5"/>
<path d="M412.233 104.25C418.506 104.25 423.595 109.383 423.595 115.719C423.595 122.055 418.506 127.187 412.233 127.188C405.959 127.188 400.869 122.055 400.869 115.719C400.869 109.383 405.959 104.25 412.233 104.25Z" fill="url(#paint32_linear_4_454)" stroke="black" stroke-width="0.5"/>
<path d="M379.007 105.812C385.28 105.813 390.369 110.945 390.369 117.281C390.369 123.617 385.28 128.75 379.007 128.75C372.733 128.75 367.644 123.617 367.644 117.281C367.644 110.945 372.733 105.812 379.007 105.812Z" fill="#655937" stroke="black" stroke-width="0.5"/>
<path d="M378.233 104.25C384.506 104.25 389.595 109.383 389.595 115.719C389.595 122.055 384.506 127.187 378.233 127.188C371.959 127.188 366.869 122.055 366.869 115.719C366.869 109.383 371.959 104.25 378.233 104.25Z" fill="url(#paint33_linear_4_454)" stroke="black" stroke-width="0.5"/>
<path d="M345.007 105.812C351.28 105.813 356.369 110.945 356.369 117.281C356.369 123.617 351.28 128.75 345.007 128.75C338.733 128.75 333.644 123.617 333.644 117.281C333.644 110.945 338.733 105.812 345.007 105.812Z" fill="#655937" stroke="black" stroke-width="0.5"/>
<path d="M344.233 104.25C350.506 104.25 355.595 109.383 355.595 115.719C355.595 122.055 350.506 127.187 344.233 127.188C337.959 127.188 332.869 122.055 332.869 115.719C332.869 109.383 337.959 104.25 344.233 104.25Z" fill="url(#paint34_linear_4_454)" stroke="black" stroke-width="0.5"/>
<path d="M355.007 68.8125C361.28 68.8127 366.369 73.9452 366.369 80.2812C366.369 86.6173 361.28 91.7498 355.007 91.75C348.733 91.75 343.644 86.6174 343.644 80.2812C343.644 73.9451 348.733 68.8125 355.007 68.8125Z" fill="#655937" stroke="black" stroke-width="0.5"/>
<path d="M354.233 66.25C360.506 66.2502 365.595 71.3827 365.595 77.7188C365.595 84.0548 360.506 89.1873 354.233 89.1875C347.959 89.1875 342.869 84.0549 342.869 77.7188C342.869 71.3826 347.959 66.25 354.233 66.25Z" fill="url(#paint35_linear_4_454)" stroke="black" stroke-width="0.5"/>
<path d="M384.007 37.8125C390.28 37.8127 395.369 42.9452 395.369 49.2812C395.369 55.6173 390.28 60.7498 384.007 60.75C377.733 60.75 372.644 55.6174 372.644 49.2812C372.644 42.9451 377.733 37.8125 384.007 37.8125Z" fill="#655937" stroke="black" stroke-width="0.5"/>
<path d="M383.233 35.25C389.506 35.2502 394.595 40.3827 394.595 46.7188C394.595 53.0548 389.506 58.1873 383.233 58.1875C376.959 58.1875 371.869 53.0549 371.869 46.7188C371.869 40.3826 376.959 35.25 383.233 35.25Z" fill="url(#paint36_linear_4_454)" stroke="black" stroke-width="0.5"/>
<path d="M423.007 18.8125C429.28 18.8127 434.369 23.9452 434.369 30.2812C434.369 36.6173 429.28 41.7498 423.007 41.75C416.733 41.75 411.644 36.6174 411.644 30.2812C411.644 23.9451 416.733 18.8125 423.007 18.8125Z" fill="#655937" stroke="black" stroke-width="0.5"/>
<path d="M422.233 16.25C428.506 16.2502 433.595 21.3827 433.595 27.7188C433.595 34.0548 428.506 39.1873 422.233 39.1875C415.959 39.1875 410.869 34.0549 410.869 27.7188C410.869 21.3826 415.959 16.25 422.233 16.25Z" fill="url(#paint37_linear_4_454)" stroke="black" stroke-width="0.5"/>
<path d="M465.007 6.8125C471.28 6.81271 476.369 11.9452 476.369 18.2812C476.369 24.6173 471.28 29.7498 465.007 29.75C458.733 29.75 453.644 24.6174 453.644 18.2812C453.644 11.9451 458.733 6.8125 465.007 6.8125Z" fill="#655937" stroke="black" stroke-width="0.5"/>
<path d="M464.233 4.25C470.506 4.25021 475.595 9.38272 475.595 15.7188C475.595 22.0548 470.506 27.1873 464.233 27.1875C457.959 27.1875 452.869 22.0549 452.869 15.7188C452.869 9.38259 457.959 4.25 464.233 4.25Z" fill="url(#paint38_linear_4_454)" stroke="black" stroke-width="0.5"/>
<path d="M507.007 4.8125C513.28 4.81271 518.369 9.94522 518.369 16.2812C518.369 22.6173 513.28 27.7498 507.007 27.75C500.733 27.75 495.644 22.6174 495.644 16.2812C495.644 9.94509 500.733 4.8125 507.007 4.8125Z" fill="#655937" stroke="black" stroke-width="0.5"/>
<path d="M506.233 2.25C512.506 2.25021 517.595 7.38272 517.595 13.7188C517.595 20.0548 512.506 25.1873 506.233 25.1875C499.959 25.1875 494.869 20.0549 494.869 13.7188C494.869 7.38259 499.959 2.25 506.233 2.25Z" fill="url(#paint39_linear_4_454)" stroke="black" stroke-width="0.5"/>
<path d="M548.007 8.8125C554.28 8.81271 559.369 13.9452 559.369 20.2812C559.369 26.6173 554.28 31.7498 548.007 31.75C541.733 31.75 536.644 26.6174 536.644 20.2812C536.644 13.9451 541.733 8.8125 548.007 8.8125Z" fill="#655937" stroke="black" stroke-width="0.5"/>
<path d="M547.233 6.25C553.506 6.25021 558.595 11.3827 558.595 17.7188C558.595 24.0548 553.506 29.1873 547.233 29.1875C540.959 29.1875 535.869 24.0549 535.869 17.7188C535.869 11.3826 540.959 6.25 547.233 6.25Z" fill="url(#paint40_linear_4_454)" stroke="black" stroke-width="0.5"/>
<path d="M585.007 22.8125C591.28 22.8127 596.369 27.9452 596.369 34.2812C596.369 40.6173 591.28 45.7498 585.007 45.75C578.733 45.75 573.644 40.6174 573.644 34.2812C573.644 27.9451 578.733 22.8125 585.007 22.8125Z" fill="#655937" stroke="black" stroke-width="0.5"/>
<path d="M584.233 20.25C590.506 20.2502 595.595 25.3827 595.595 31.7188C595.595 38.0548 590.506 43.1873 584.233 43.1875C577.959 43.1875 572.869 38.0549 572.869 31.7188C572.869 25.3826 577.959 20.25 584.233 20.25Z" fill="url(#paint41_linear_4_454)" stroke="black" stroke-width="0.5"/>
<path d="M622.007 43.8125C628.28 43.8127 633.369 48.9452 633.369 55.2812C633.369 61.6173 628.28 66.7498 622.007 66.75C615.733 66.75 610.644 61.6174 610.644 55.2812C610.644 48.9451 615.733 43.8125 622.007 43.8125Z" fill="#655937" stroke="black" stroke-width="0.5"/>
<path d="M621.233 41.25C627.506 41.2502 632.595 46.3827 632.595 52.7188C632.595 59.0548 627.506 64.1873 621.233 64.1875C614.959 64.1875 609.869 59.0549 609.869 52.7188C609.869 46.3826 614.959 41.25 621.233 41.25Z" fill="url(#paint42_linear_4_454)" stroke="black" stroke-width="0.5"/>
<path d="M646.007 70.8125C652.28 70.8127 657.369 75.9452 657.369 82.2812C657.369 88.6173 652.28 93.7498 646.007 93.75C639.733 93.75 634.644 88.6174 634.644 82.2812C634.644 75.9451 639.733 70.8125 646.007 70.8125Z" fill="#655937" stroke="black" stroke-width="0.5"/>
<path d="M645.233 68.25C651.506 68.2502 656.595 73.3827 656.595 79.7188C656.595 86.0548 651.506 91.1873 645.233 91.1875C638.959 91.1875 633.869 86.0549 633.869 79.7188C633.869 73.3826 638.959 68.25 645.233 68.25Z" fill="url(#paint43_linear_4_454)" stroke="black" stroke-width="0.5"/>
<path d="M311.007 105.812C317.28 105.813 322.369 110.945 322.369 117.281C322.369 123.617 317.28 128.75 311.007 128.75C304.733 128.75 299.644 123.617 299.644 117.281C299.644 110.945 304.733 105.812 311.007 105.812Z" fill="#655937" stroke="black" stroke-width="0.5"/>
<path d="M310.233 104.25C316.506 104.25 321.595 109.383 321.595 115.719C321.595 122.055 316.506 127.187 310.233 127.188C303.959 127.188 298.869 122.055 298.869 115.719C298.869 109.383 303.959 104.25 310.233 104.25Z" fill="url(#paint44_linear_4_454)" stroke="black" stroke-width="0.5"/>
<path d="M277.007 105.812C283.28 105.813 288.369 110.945 288.369 117.281C288.369 123.617 283.28 128.75 277.007 128.75C270.733 128.75 265.644 123.617 265.644 117.281C265.644 110.945 270.733 105.812 277.007 105.812Z" fill="#655937" stroke="black" stroke-width="0.5"/>
<path d="M276.233 104.25C282.506 104.25 287.595 109.383 287.595 115.719C287.595 122.055 282.506 127.187 276.233 127.188C269.959 127.188 264.869 122.055 264.869 115.719C264.869 109.383 269.959 104.25 276.233 104.25Z" fill="url(#paint45_linear_4_454)" stroke="black" stroke-width="0.5"/>
<path d="M243.007 105.812C249.28 105.813 254.369 110.945 254.369 117.281C254.369 123.617 249.28 128.75 243.007 128.75C236.733 128.75 231.644 123.617 231.644 117.281C231.644 110.945 236.733 105.812 243.007 105.812Z" fill="#655937" stroke="black" stroke-width="0.5"/>
<path d="M242.233 104.25C248.506 104.25 253.595 109.383 253.595 115.719C253.595 122.055 248.506 127.187 242.233 127.188C235.959 127.188 230.869 122.055 230.869 115.719C230.869 109.383 235.959 104.25 242.233 104.25Z" fill="url(#paint46_linear_4_454)" stroke="black" stroke-width="0.5"/>
<path d="M209.007 105.812C215.28 105.813 220.369 110.945 220.369 117.281C220.369 123.617 215.28 128.75 209.007 128.75C202.733 128.75 197.644 123.617 197.644 117.281C197.644 110.945 202.733 105.812 209.007 105.812Z" fill="#655937" stroke="black" stroke-width="0.5"/>
<path d="M208.233 104.25C214.506 104.25 219.595 109.383 219.595 115.719C219.595 122.055 214.506 127.187 208.233 127.188C201.959 127.188 196.869 122.055 196.869 115.719C196.869 109.383 201.959 104.25 208.233 104.25Z" fill="url(#paint47_linear_4_454)" stroke="black" stroke-width="0.5"/>
<path d="M175.007 105.812C181.28 105.813 186.369 110.945 186.369 117.281C186.369 123.617 181.28 128.75 175.007 128.75C168.733 128.75 163.644 123.617 163.644 117.281C163.644 110.945 168.733 105.812 175.007 105.812Z" fill="#655937" stroke="black" stroke-width="0.5"/>
<path d="M174.233 104.25C180.506 104.25 185.595 109.383 185.595 115.719C185.595 122.055 180.506 127.187 174.233 127.188C167.959 127.188 162.869 122.055 162.869 115.719C162.869 109.383 167.959 104.25 174.233 104.25Z" fill="url(#paint48_linear_4_454)" stroke="black" stroke-width="0.5"/>
<path d="M141.007 105.812C147.28 105.813 152.369 110.945 152.369 117.281C152.369 123.617 147.28 128.75 141.007 128.75C134.733 128.75 129.644 123.617 129.644 117.281C129.644 110.945 134.733 105.812 141.007 105.812Z" fill="#655937" stroke="black" stroke-width="0.5"/>
<path d="M140.233 104.25C146.506 104.25 151.595 109.383 151.595 115.719C151.595 122.055 146.506 127.187 140.233 127.188C133.959 127.188 128.869 122.055 128.869 115.719C128.869 109.383 133.959 104.25 140.233 104.25Z" fill="url(#paint49_linear_4_454)" stroke="black" stroke-width="0.5"/>
<path d="M856.007 105.812C862.28 105.813 867.369 110.945 867.369 117.281C867.369 123.617 862.28 128.75 856.007 128.75C849.733 128.75 844.644 123.617 844.644 117.281C844.644 110.945 849.733 105.812 856.007 105.812Z" fill="#655937" stroke="black" stroke-width="0.5"/>
<path d="M855.233 104.25C861.506 104.25 866.595 109.383 866.595 115.719C866.595 122.055 861.506 127.187 855.233 127.188C848.959 127.188 843.869 122.055 843.869 115.719C843.869 109.383 848.959 104.25 855.233 104.25Z" fill="url(#paint50_linear_4_454)" stroke="black" stroke-width="0.5"/>
<path d="M822.007 105.812C828.28 105.813 833.369 110.945 833.369 117.281C833.369 123.617 828.28 128.75 822.007 128.75C815.733 128.75 810.644 123.617 810.644 117.281C810.644 110.945 815.733 105.812 822.007 105.812Z" fill="#655937" stroke="black" stroke-width="0.5"/>
<path d="M821.233 104.25C827.506 104.25 832.595 109.383 832.595 115.719C832.595 122.055 827.506 127.187 821.233 127.188C814.959 127.188 809.869 122.055 809.869 115.719C809.869 109.383 814.959 104.25 821.233 104.25Z" fill="url(#paint51_linear_4_454)" stroke="black" stroke-width="0.5"/>
<path d="M788.007 105.812C794.28 105.813 799.369 110.945 799.369 117.281C799.369 123.617 794.28 128.75 788.007 128.75C781.733 128.75 776.644 123.617 776.644 117.281C776.644 110.945 781.733 105.812 788.007 105.812Z" fill="#655937" stroke="black" stroke-width="0.5"/>
<path d="M787.233 104.25C793.506 104.25 798.595 109.383 798.595 115.719C798.595 122.055 793.506 127.187 787.233 127.188C780.959 127.188 775.869 122.055 775.869 115.719C775.869 109.383 780.959 104.25 787.233 104.25Z" fill="url(#paint52_linear_4_454)" stroke="black" stroke-width="0.5"/>
<path d="M754.007 105.812C760.28 105.813 765.369 110.945 765.369 117.281C765.369 123.617 760.28 128.75 754.007 128.75C747.733 128.75 742.644 123.617 742.644 117.281C742.644 110.945 747.733 105.812 754.007 105.812Z" fill="#655937" stroke="black" stroke-width="0.5"/>
<path d="M753.233 104.25C759.506 104.25 764.595 109.383 764.595 115.719C764.595 122.055 759.506 127.187 753.233 127.188C746.959 127.188 741.869 122.055 741.869 115.719C741.869 109.383 746.959 104.25 753.233 104.25Z" fill="url(#paint53_linear_4_454)" stroke="black" stroke-width="0.5"/>
<path d="M720.007 105.812C726.28 105.813 731.369 110.945 731.369 117.281C731.369 123.617 726.28 128.75 720.007 128.75C713.733 128.75 708.644 123.617 708.644 117.281C708.644 110.945 713.733 105.812 720.007 105.812Z" fill="#655937" stroke="black" stroke-width="0.5"/>
<path d="M719.233 104.25C725.506 104.25 730.595 109.383 730.595 115.719C730.595 122.055 725.506 127.187 719.233 127.188C712.959 127.188 707.869 122.055 707.869 115.719C707.869 109.383 712.959 104.25 719.233 104.25Z" fill="url(#paint54_linear_4_454)" stroke="black" stroke-width="0.5"/>
<path d="M686.007 105.812C692.28 105.813 697.369 110.945 697.369 117.281C697.369 123.617 692.28 128.75 686.007 128.75C679.733 128.75 674.644 123.617 674.644 117.281C674.644 110.945 679.733 105.812 686.007 105.812Z" fill="#655937" stroke="black" stroke-width="0.5"/>
<path d="M685.233 104.25C691.506 104.25 696.595 109.383 696.595 115.719C696.595 122.055 691.506 127.187 685.233 127.188C678.959 127.188 673.869 122.055 673.869 115.719C673.869 109.383 678.959 104.25 685.233 104.25Z" fill="url(#paint55_linear_4_454)" stroke="black" stroke-width="0.5"/>
<path d="M652.007 105.812C658.28 105.813 663.369 110.945 663.369 117.281C663.369 123.617 658.28 128.75 652.007 128.75C645.733 128.75 640.644 123.617 640.644 117.281C640.644 110.945 645.733 105.812 652.007 105.812Z" fill="#655937" stroke="black" stroke-width="0.5"/>
<path d="M651.233 104.25C657.506 104.25 662.595 109.383 662.595 115.719C662.595 122.055 657.506 127.187 651.233 127.188C644.959 127.188 639.869 122.055 639.869 115.719C639.869 109.383 644.959 104.25 651.233 104.25Z" fill="url(#paint56_linear_4_454)" stroke="black" stroke-width="0.5"/>
<path d="M618.007 105.812C624.28 105.813 629.369 110.945 629.369 117.281C629.369 123.617 624.28 128.75 618.007 128.75C611.733 128.75 606.644 123.617 606.644 117.281C606.644 110.945 611.733 105.812 618.007 105.812Z" fill="#655937" stroke="black" stroke-width="0.5"/>
<path d="M617.233 104.25C623.506 104.25 628.595 109.383 628.595 115.719C628.595 122.055 623.506 127.187 617.233 127.188C610.959 127.188 605.869 122.055 605.869 115.719C605.869 109.383 610.959 104.25 617.233 104.25Z" fill="url(#paint57_linear_4_454)" stroke="black" stroke-width="0.5"/>
<path d="M584.007 105.812C590.28 105.813 595.369 110.945 595.369 117.281C595.369 123.617 590.28 128.75 584.007 128.75C577.733 128.75 572.644 123.617 572.644 117.281C572.644 110.945 577.733 105.812 584.007 105.812Z" fill="#655937" stroke="black" stroke-width="0.5"/>
<path d="M583.233 104.25C589.506 104.25 594.595 109.383 594.595 115.719C594.595 122.055 589.506 127.187 583.233 127.188C576.959 127.188 571.869 122.055 571.869 115.719C571.869 109.383 576.959 104.25 583.233 104.25Z" fill="url(#paint58_linear_4_454)" stroke="black" stroke-width="0.5"/>
<path d="M550.007 105.812C556.28 105.813 561.369 110.945 561.369 117.281C561.369 123.617 556.28 128.75 550.007 128.75C543.733 128.75 538.644 123.617 538.644 117.281C538.644 110.945 543.733 105.812 550.007 105.812Z" fill="#655937" stroke="black" stroke-width="0.5"/>
<path d="M549.233 104.25C555.506 104.25 560.595 109.383 560.595 115.719C560.595 122.055 555.506 127.187 549.233 127.188C542.959 127.188 537.869 122.055 537.869 115.719C537.869 109.383 542.959 104.25 549.233 104.25Z" fill="url(#paint59_linear_4_454)" stroke="black" stroke-width="0.5"/>
<path d="M516.007 105.812C522.28 105.813 527.369 110.945 527.369 117.281C527.369 123.617 522.28 128.75 516.007 128.75C509.733 128.75 504.644 123.617 504.644 117.281C504.644 110.945 509.733 105.812 516.007 105.812Z" fill="#655937" stroke="black" stroke-width="0.5"/>
<path d="M515.233 104.25C521.506 104.25 526.595 109.383 526.595 115.719C526.595 122.055 521.506 127.187 515.233 127.188C508.959 127.188 503.869 122.055 503.869 115.719C503.869 109.383 508.959 104.25 515.233 104.25Z" fill="url(#paint60_linear_4_454)" stroke="black" stroke-width="0.5"/>
<path d="M482.007 105.812C488.28 105.813 493.369 110.945 493.369 117.281C493.369 123.617 488.28 128.75 482.007 128.75C475.733 128.75 470.644 123.617 470.644 117.281C470.644 110.945 475.733 105.812 482.007 105.812Z" fill="#655937" stroke="black" stroke-width="0.5"/>
<path d="M481.233 104.25C487.506 104.25 492.595 109.383 492.595 115.719C492.595 122.055 487.506 127.187 481.233 127.188C474.959 127.188 469.869 122.055 469.869 115.719C469.869 109.383 474.959 104.25 481.233 104.25Z" fill="url(#paint61_linear_4_454)" stroke="black" stroke-width="0.5"/>
<path d="M448.007 105.812C454.28 105.813 459.369 110.945 459.369 117.281C459.369 123.617 454.28 128.75 448.007 128.75C441.733 128.75 436.644 123.617 436.644 117.281C436.644 110.945 441.733 105.812 448.007 105.812Z" fill="#655937" stroke="black" stroke-width="0.5"/>
<path d="M447.233 104.25C453.506 104.25 458.595 109.383 458.595 115.719C458.595 122.055 453.506 127.187 447.233 127.188C440.959 127.188 435.869 122.055 435.869 115.719C435.869 109.383 440.959 104.25 447.233 104.25Z" fill="url(#paint62_linear_4_454)" stroke="black" stroke-width="0.5"/>
<path d="M147.807 481.379C147.807 487.652 142.674 492.741 136.338 492.741C130.002 492.741 124.87 487.652 124.869 481.379C124.869 475.105 130.002 470.016 136.338 470.016C142.674 470.016 147.807 475.105 147.807 481.379Z" fill="#655937" stroke="black" stroke-width="0.5"/>
<path d="M149.369 480.605C149.369 486.878 144.237 491.967 137.901 491.967C131.565 491.967 126.432 486.878 126.432 480.605C126.432 474.331 131.564 469.241 137.901 469.241C144.237 469.241 149.369 474.331 149.369 480.605Z" fill="url(#paint63_linear_4_454)" stroke="black" stroke-width="0.5"/>
<path d="M148.028 447.38C148.027 453.653 142.895 458.742 136.559 458.742C130.223 458.742 125.09 453.653 125.09 447.38C125.09 441.106 130.223 436.016 136.559 436.016C142.895 436.016 148.028 441.106 148.028 447.38Z" fill="#655937" stroke="black" stroke-width="0.5"/>
<path d="M149.59 446.605C149.59 452.879 144.457 457.968 138.121 457.968C131.785 457.968 126.653 452.879 126.653 446.605C126.653 440.332 131.785 435.242 138.121 435.242C144.457 435.242 149.59 440.332 149.59 446.605Z" fill="url(#paint64_linear_4_454)" stroke="black" stroke-width="0.5"/>
<path d="M148.248 413.38C148.248 419.654 143.115 424.743 136.779 424.743C130.443 424.743 125.311 419.654 125.311 413.38C125.311 407.107 130.443 402.017 136.779 402.017C143.116 402.017 148.248 407.107 148.248 413.38Z" fill="#655937" stroke="black" stroke-width="0.5"/>
<path d="M149.811 412.606C149.81 418.879 144.678 423.968 138.342 423.968C132.006 423.968 126.873 418.879 126.873 412.606C126.873 406.333 132.006 401.243 138.342 401.243C144.678 401.243 149.811 406.333 149.811 412.606Z" fill="url(#paint65_linear_4_454)" stroke="black" stroke-width="0.5"/>
<path d="M148.469 379.381C148.469 385.654 143.336 390.743 137 390.743C130.664 390.743 125.532 385.654 125.531 379.381C125.531 373.108 130.664 368.018 137 368.018C143.336 368.018 148.469 373.108 148.469 379.381Z" fill="#655937" stroke="black" stroke-width="0.5"/>
<path d="M150.031 378.607C150.031 384.88 144.899 389.969 138.563 389.969C132.227 389.969 127.094 384.88 127.094 378.607C127.094 372.333 132.226 367.244 138.563 367.244C144.899 367.244 150.031 372.333 150.031 378.607Z" fill="url(#paint66_linear_4_454)" stroke="black" stroke-width="0.5"/>
<path d="M148.689 345.382C148.689 351.655 143.557 356.744 137.221 356.744C130.885 356.744 125.752 351.655 125.752 345.382C125.752 339.108 130.885 334.018 137.221 334.018C143.557 334.018 148.689 339.108 148.689 345.382Z" fill="#655937" stroke="black" stroke-width="0.5"/>
<path d="M150.252 344.608C150.252 350.881 145.119 355.97 138.783 355.97C132.447 355.97 127.315 350.881 127.314 344.608C127.314 338.334 132.447 333.244 138.783 333.244C145.119 333.244 150.252 338.334 150.252 344.608Z" fill="url(#paint67_linear_4_454)" stroke="black" stroke-width="0.5"/>
<path d="M148.91 311.382C148.91 317.656 143.777 322.745 137.441 322.745C131.105 322.745 125.973 317.656 125.973 311.382C125.973 305.109 131.105 300.019 137.441 300.019C143.778 300.019 148.91 305.109 148.91 311.382Z" fill="#655937" stroke="black" stroke-width="0.5"/>
<path d="M150.473 310.608C150.472 316.881 145.34 321.971 139.004 321.971C132.668 321.971 127.535 316.881 127.535 310.608C127.535 304.335 132.668 299.245 139.004 299.245C145.34 299.245 150.473 304.335 150.473 310.608Z" fill="url(#paint68_linear_4_454)" stroke="black" stroke-width="0.5"/>
<path d="M149.131 277.383C149.131 283.656 143.998 288.745 137.662 288.745C131.326 288.745 126.193 283.656 126.193 277.383C126.193 271.11 131.326 266.02 137.662 266.02C143.998 266.02 149.131 271.11 149.131 277.383Z" fill="#655937" stroke="black" stroke-width="0.5"/>
<path d="M150.693 276.609C150.693 282.882 145.561 287.971 139.225 287.971C132.888 287.971 127.756 282.882 127.756 276.609C127.756 270.336 132.888 265.246 139.225 265.246C145.561 265.246 150.693 270.336 150.693 276.609Z" fill="url(#paint69_linear_4_454)" stroke="black" stroke-width="0.5"/>
<path d="M149.351 243.384C149.351 249.657 144.219 254.746 137.883 254.746C131.547 254.746 126.414 249.657 126.414 243.384C126.414 237.11 131.547 232.021 137.883 232.021C144.219 232.021 149.351 237.11 149.351 243.384Z" fill="#655937" stroke="black" stroke-width="0.5"/>
<path d="M150.914 242.61C150.914 248.883 145.781 253.972 139.445 253.972C133.109 253.972 127.977 248.883 127.976 242.61C127.976 236.336 133.109 231.246 139.445 231.246C145.781 231.246 150.914 236.336 150.914 242.61Z" fill="url(#paint70_linear_4_454)" stroke="black" stroke-width="0.5"/>
<path d="M149.572 209.385C149.572 215.658 144.439 220.747 138.103 220.747C131.767 220.747 126.635 215.658 126.635 209.385C126.635 203.111 131.767 198.021 138.103 198.021C144.439 198.021 149.572 203.111 149.572 209.385Z" fill="#655937" stroke="black" stroke-width="0.5"/>
<path d="M151.135 208.61C151.134 214.884 146.002 219.973 139.666 219.973C133.33 219.973 128.197 214.884 128.197 208.61C128.197 202.337 133.33 197.247 139.666 197.247C146.002 197.247 151.135 202.337 151.135 208.61Z" fill="url(#paint71_linear_4_454)" stroke="black" stroke-width="0.5"/>
<path d="M149.793 175.385C149.793 181.659 144.66 186.748 138.324 186.748C131.988 186.748 126.855 181.659 126.855 175.385C126.855 169.112 131.988 164.022 138.324 164.022C144.66 164.022 149.793 169.112 149.793 175.385Z" fill="#655937" stroke="black" stroke-width="0.5"/>
<path d="M151.355 174.611C151.355 180.884 146.223 185.973 139.886 185.973C133.55 185.973 128.418 180.884 128.418 174.611C128.418 168.338 133.55 163.248 139.886 163.248C146.223 163.248 151.355 168.338 151.355 174.611Z" fill="url(#paint72_linear_4_454)" stroke="black" stroke-width="0.5"/>
<path d="M150.013 141.386C150.013 147.659 144.881 152.748 138.545 152.748C132.209 152.748 127.076 147.659 127.076 141.386C127.076 135.113 132.208 130.023 138.545 130.023C144.881 130.023 150.013 135.113 150.013 141.386Z" fill="#655937" stroke="black" stroke-width="0.5"/>
<path d="M151.576 140.612C151.576 146.885 146.443 151.974 140.107 151.974C133.771 151.974 128.639 146.885 128.638 140.612C128.638 134.338 133.771 129.249 140.107 129.249C146.443 129.249 151.576 134.338 151.576 140.612Z" fill="url(#paint73_linear_4_454)" stroke="black" stroke-width="0.5"/>
<path d="M115.807 147.387C115.807 153.661 110.674 158.75 104.338 158.75C98.0021 158.75 92.8696 153.661 92.8694 147.387C92.8694 141.114 98.002 136.024 104.338 136.024C110.674 136.024 115.807 141.114 115.807 147.387Z" fill="#655937" stroke="black" stroke-width="0.5"/>
<path d="M117.369 146.613C117.369 152.887 112.237 157.976 105.901 157.976C99.5646 157.976 94.4321 152.887 94.4319 146.613C94.4319 140.34 99.5645 135.25 105.901 135.25C112.237 135.25 117.369 140.34 117.369 146.613Z" fill="url(#paint74_linear_4_454)" stroke="black" stroke-width="0.5"/>
<path d="M80.8069 163.387C80.8067 169.661 75.6742 174.75 69.3381 174.75C63.0021 174.75 57.8696 169.661 57.8694 163.387C57.8694 157.114 63.002 152.024 69.3381 152.024C75.6743 152.024 80.8069 157.114 80.8069 163.387Z" fill="#655937" stroke="black" stroke-width="0.5"/>
<path d="M82.3694 162.613C82.3692 168.887 77.2367 173.976 70.9006 173.976C64.5646 173.976 59.4321 168.887 59.4319 162.613C59.4319 156.34 64.5645 151.25 70.9006 151.25C77.2368 151.25 82.3694 156.34 82.3694 162.613Z" fill="url(#paint75_linear_4_454)" stroke="black" stroke-width="0.5"/>
<path d="M51.8069 187.387C51.8067 193.661 46.6742 198.75 40.3381 198.75C34.0021 198.75 28.8696 193.661 28.8694 187.387C28.8694 181.114 34.002 176.024 40.3381 176.024C46.6743 176.024 51.8069 181.114 51.8069 187.387Z" fill="#655937" stroke="black" stroke-width="0.5"/>
<path d="M53.3694 186.613C53.3692 192.887 48.2367 197.976 41.9006 197.976C35.5646 197.976 30.4321 192.887 30.4319 186.613C30.4319 180.34 35.5645 175.25 41.9006 175.25C48.2368 175.25 53.3694 180.34 53.3694 186.613Z" fill="url(#paint76_linear_4_454)" stroke="black" stroke-width="0.5"/>
<path d="M33.8069 220.387C33.8067 226.661 28.6742 231.75 22.3381 231.75C16.0021 231.75 10.8696 226.661 10.8694 220.387C10.8694 214.114 16.002 209.024 22.3381 209.024C28.6743 209.024 33.8069 214.114 33.8069 220.387Z" fill="#655937" stroke="black" stroke-width="0.5"/>
<path d="M35.3694 219.613C35.3692 225.887 30.2367 230.976 23.9006 230.976C17.5646 230.976 12.4321 225.887 12.4319 219.613C12.4319 213.34 17.5645 208.25 23.9006 208.25C30.2368 208.25 35.3694 213.34 35.3694 219.613Z" fill="url(#paint77_linear_4_454)" stroke="black" stroke-width="0.5"/>
<path d="M28.8069 258.387C28.8067 264.661 23.6742 269.75 17.3381 269.75C11.0021 269.75 5.86959 264.661 5.86938 258.387C5.86938 252.114 11.002 247.024 17.3381 247.024C23.6743 247.024 28.8069 252.114 28.8069 258.387Z" fill="#655937" stroke="black" stroke-width="0.5"/>
<path d="M30.3694 257.613C30.3692 263.887 25.2367 268.976 18.9006 268.976C12.5646 268.976 7.43209 263.887 7.43188 257.613C7.43188 251.34 12.5645 246.25 18.9006 246.25C25.2368 246.25 30.3694 251.34 30.3694 257.613Z" fill="url(#paint78_linear_4_454)" stroke="black" stroke-width="0.5"/>
<path d="M35.8069 296.387C35.8067 302.661 30.6742 307.75 24.3381 307.75C18.0021 307.75 12.8696 302.661 12.8694 296.387C12.8694 290.114 18.002 285.024 24.3381 285.024C30.6743 285.024 35.8069 290.114 35.8069 296.387Z" fill="#655937" stroke="black" stroke-width="0.5"/>
<path d="M37.3694 295.613C37.3692 301.887 32.2367 306.976 25.9006 306.976C19.5646 306.976 14.4321 301.887 14.4319 295.613C14.4319 289.34 19.5645 284.25 25.9006 284.25C32.2368 284.25 37.3694 289.34 37.3694 295.613Z" fill="url(#paint79_linear_4_454)" stroke="black" stroke-width="0.5"/>
<path d="M54.8069 330.387C54.8067 336.661 49.6742 341.75 43.3381 341.75C37.0021 341.75 31.8696 336.661 31.8694 330.387C31.8694 324.114 37.002 319.024 43.3381 319.024C49.6743 319.024 54.8069 324.114 54.8069 330.387Z" fill="#655937" stroke="black" stroke-width="0.5"/>
<path d="M56.3694 329.613C56.3692 335.887 51.2367 340.976 44.9006 340.976C38.5646 340.976 33.4321 335.887 33.4319 329.613C33.4319 323.34 38.5645 318.25 44.9006 318.25C51.2368 318.25 56.3694 323.34 56.3694 329.613Z" fill="url(#paint80_linear_4_454)" stroke="black" stroke-width="0.5"/>
<path d="M85.8069 355.387C85.8067 361.661 80.6742 366.75 74.3381 366.75C68.0021 366.75 62.8696 361.661 62.8694 355.387C62.8694 349.114 68.002 344.024 74.3381 344.024C80.6743 344.024 85.8069 349.114 85.8069 355.387Z" fill="#655937" stroke="black" stroke-width="0.5"/>
<path d="M87.3694 354.613C87.3692 360.887 82.2367 365.976 75.9006 365.976C69.5646 365.976 64.4321 360.887 64.4319 354.613C64.4319 348.34 69.5645 343.25 75.9006 343.25C82.2368 343.25 87.3694 348.34 87.3694 354.613Z" fill="url(#paint81_linear_4_454)" stroke="black" stroke-width="0.5"/>
<path d="M117.807 369.387C117.807 375.661 112.674 380.75 106.338 380.75C100.002 380.75 94.8696 375.661 94.8694 369.387C94.8694 363.114 100.002 358.024 106.338 358.024C112.674 358.024 117.807 363.114 117.807 369.387Z" fill="#655937" stroke="black" stroke-width="0.5"/>
<path d="M119.369 368.613C119.369 374.887 114.237 379.976 107.901 379.976C101.565 379.976 96.4321 374.887 96.4319 368.613C96.4319 362.34 101.564 357.25 107.901 357.25C114.237 357.25 119.369 362.34 119.369 368.613Z" fill="url(#paint82_linear_4_454)" stroke="black" stroke-width="0.5"/>
<path d="M546.007 470.812C552.28 470.813 557.369 475.945 557.369 482.281C557.369 488.617 552.28 493.75 546.007 493.75C539.733 493.75 534.644 488.617 534.644 482.281C534.644 475.945 539.733 470.812 546.007 470.812Z" fill="#655937" stroke="black" stroke-width="0.5"/>
<path d="M545.233 469.25C551.506 469.25 556.595 474.383 556.595 480.719C556.595 487.055 551.506 492.187 545.233 492.188C538.959 492.188 533.869 487.055 533.869 480.719C533.869 474.383 538.959 469.25 545.233 469.25Z" fill="url(#paint83_linear_4_454)" stroke="black" stroke-width="0.5"/>
<path d="M512.007 470.812C518.28 470.813 523.369 475.945 523.369 482.281C523.369 488.617 518.28 493.75 512.007 493.75C505.733 493.75 500.644 488.617 500.644 482.281C500.644 475.945 505.733 470.812 512.007 470.812Z" fill="#655937" stroke="black" stroke-width="0.5"/>
<path d="M511.233 469.25C517.506 469.25 522.595 474.383 522.595 480.719C522.595 487.055 517.506 492.187 511.233 492.188C504.959 492.188 499.869 487.055 499.869 480.719C499.869 474.383 504.959 469.25 511.233 469.25Z" fill="url(#paint84_linear_4_454)" stroke="black" stroke-width="0.5"/>
<path d="M478.007 470.812C484.28 470.813 489.369 475.945 489.369 482.281C489.369 488.617 484.28 493.75 478.007 493.75C471.733 493.75 466.644 488.617 466.644 482.281C466.644 475.945 471.733 470.812 478.007 470.812Z" fill="#655937" stroke="black" stroke-width="0.5"/>
<path d="M477.233 469.25C483.506 469.25 488.595 474.383 488.595 480.719C488.595 487.055 483.506 492.187 477.233 492.188C470.959 492.188 465.869 487.055 465.869 480.719C465.869 474.383 470.959 469.25 477.233 469.25Z" fill="url(#paint85_linear_4_454)" stroke="black" stroke-width="0.5"/>
<path d="M444.007 470.812C450.28 470.813 455.369 475.945 455.369 482.281C455.369 488.617 450.28 493.75 444.007 493.75C437.733 493.75 432.644 488.617 432.644 482.281C432.644 475.945 437.733 470.812 444.007 470.812Z" fill="#655937" stroke="black" stroke-width="0.5"/>
<path d="M443.233 469.25C449.506 469.25 454.595 474.383 454.595 480.719C454.595 487.055 449.506 492.187 443.233 492.188C436.959 492.188 431.869 487.055 431.869 480.719C431.869 474.383 436.959 469.25 443.233 469.25Z" fill="url(#paint86_linear_4_454)" stroke="black" stroke-width="0.5"/>
<path d="M410.007 470.812C416.28 470.813 421.369 475.945 421.369 482.281C421.369 488.617 416.28 493.75 410.007 493.75C403.733 493.75 398.644 488.617 398.644 482.281C398.644 475.945 403.733 470.812 410.007 470.812Z" fill="#655937" stroke="black" stroke-width="0.5"/>
<path d="M409.233 469.25C415.506 469.25 420.595 474.383 420.595 480.719C420.595 487.055 415.506 492.187 409.233 492.188C402.959 492.188 397.869 487.055 397.869 480.719C397.869 474.383 402.959 469.25 409.233 469.25Z" fill="url(#paint87_linear_4_454)" stroke="black" stroke-width="0.5"/>
<path d="M376.007 470.812C382.28 470.813 387.369 475.945 387.369 482.281C387.369 488.617 382.28 493.75 376.007 493.75C369.733 493.75 364.644 488.617 364.644 482.281C364.644 475.945 369.733 470.812 376.007 470.812Z" fill="#655937" stroke="black" stroke-width="0.5"/>
<path d="M375.233 469.25C381.506 469.25 386.595 474.383 386.595 480.719C386.595 487.055 381.506 492.187 375.233 492.188C368.959 492.188 363.869 487.055 363.869 480.719C363.869 474.383 368.959 469.25 375.233 469.25Z" fill="url(#paint88_linear_4_454)" stroke="black" stroke-width="0.5"/>
<path d="M342.007 470.812C348.28 470.813 353.369 475.945 353.369 482.281C353.369 488.617 348.28 493.75 342.007 493.75C335.733 493.75 330.644 488.617 330.644 482.281C330.644 475.945 335.733 470.812 342.007 470.812Z" fill="#655937" stroke="black" stroke-width="0.5"/>
<path d="M341.233 469.25C347.506 469.25 352.595 474.383 352.595 480.719C352.595 487.055 347.506 492.187 341.233 492.188C334.959 492.188 329.869 487.055 329.869 480.719C329.869 474.383 334.959 469.25 341.233 469.25Z" fill="url(#paint89_linear_4_454)" stroke="black" stroke-width="0.5"/>
<path d="M308.007 470.812C314.28 470.813 319.369 475.945 319.369 482.281C319.369 488.617 314.28 493.75 308.007 493.75C301.733 493.75 296.644 488.617 296.644 482.281C296.644 475.945 301.733 470.812 308.007 470.812Z" fill="#655937" stroke="black" stroke-width="0.5"/>
<path d="M307.233 469.25C313.506 469.25 318.595 474.383 318.595 480.719C318.595 487.055 313.506 492.187 307.233 492.188C300.959 492.188 295.869 487.055 295.869 480.719C295.869 474.383 300.959 469.25 307.233 469.25Z" fill="url(#paint90_linear_4_454)" stroke="black" stroke-width="0.5"/>
<path d="M274.007 470.812C280.28 470.813 285.369 475.945 285.369 482.281C285.369 488.617 280.28 493.75 274.007 493.75C267.733 493.75 262.644 488.617 262.644 482.281C262.644 475.945 267.733 470.812 274.007 470.812Z" fill="#655937" stroke="black" stroke-width="0.5"/>
<path d="M273.233 469.25C279.506 469.25 284.595 474.383 284.595 480.719C284.595 487.055 279.506 492.187 273.233 492.188C266.959 492.188 261.869 487.055 261.869 480.719C261.869 474.383 266.959 469.25 273.233 469.25Z" fill="url(#paint91_linear_4_454)" stroke="black" stroke-width="0.5"/>
<path d="M240.007 470.812C246.28 470.813 251.369 475.945 251.369 482.281C251.369 488.617 246.28 493.75 240.007 493.75C233.733 493.75 228.644 488.617 228.644 482.281C228.644 475.945 233.733 470.812 240.007 470.812Z" fill="#655937" stroke="black" stroke-width="0.5"/>
<path d="M239.233 469.25C245.506 469.25 250.595 474.383 250.595 480.719C250.595 487.055 245.506 492.187 239.233 492.188C232.959 492.188 227.869 487.055 227.869 480.719C227.869 474.383 232.959 469.25 239.233 469.25Z" fill="url(#paint92_linear_4_454)" stroke="black" stroke-width="0.5"/>
<path d="M206.007 470.812C212.28 470.813 217.369 475.945 217.369 482.281C217.369 488.617 212.28 493.75 206.007 493.75C199.733 493.75 194.644 488.617 194.644 482.281C194.644 475.945 199.733 470.812 206.007 470.812Z" fill="#655937" stroke="black" stroke-width="0.5"/>
<path d="M205.233 469.25C211.506 469.25 216.595 474.383 216.595 480.719C216.595 487.055 211.506 492.187 205.233 492.188C198.959 492.188 193.869 487.055 193.869 480.719C193.869 474.383 198.959 469.25 205.233 469.25Z" fill="url(#paint93_linear_4_454)" stroke="black" stroke-width="0.5"/>
<path d="M172.007 470.812C178.28 470.813 183.369 475.945 183.369 482.281C183.369 488.617 178.28 493.75 172.007 493.75C165.733 493.75 160.644 488.617 160.644 482.281C160.644 475.945 165.733 470.812 172.007 470.812Z" fill="#655937" stroke="black" stroke-width="0.5"/>
<path d="M171.233 469.25C177.506 469.25 182.595 474.383 182.595 480.719C182.595 487.055 177.506 492.187 171.233 492.188C164.959 492.188 159.869 487.055 159.869 480.719C159.869 474.383 164.959 469.25 171.233 469.25Z" fill="url(#paint94_linear_4_454)" stroke="black" stroke-width="0.5"/>
<path d="M138.007 470.812C144.28 470.813 149.369 475.945 149.369 482.281C149.369 488.617 144.28 493.75 138.007 493.75C131.733 493.75 126.644 488.617 126.644 482.281C126.644 475.945 131.733 470.812 138.007 470.812Z" fill="#655937" stroke="black" stroke-width="0.5"/>
<path d="M137.233 469.25C143.506 469.25 148.595 474.383 148.595 480.719C148.595 487.055 143.506 492.187 137.233 492.188C130.959 492.188 125.869 487.055 125.869 480.719C125.869 474.383 130.959 469.25 137.233 469.25Z" fill="url(#paint95_linear_4_454)" stroke="black" stroke-width="0.5"/>
<path d="M854.786 105.812C861.059 105.813 866.149 110.945 866.149 117.281C866.149 123.617 861.059 128.75 854.786 128.75C848.513 128.75 843.423 123.617 843.423 117.281C843.423 110.945 848.513 105.812 854.786 105.812Z" fill="#655937" stroke="black" stroke-width="0.5"/>
<path d="M854.012 104.25C860.285 104.25 865.374 109.383 865.374 115.719C865.374 122.055 860.285 127.187 854.012 127.188C847.739 127.188 842.649 122.055 842.649 115.719C842.649 109.383 847.739 104.25 854.012 104.25Z" fill="url(#paint96_linear_4_454)" stroke="black" stroke-width="0.5"/>
<path d="M861.807 447.38C861.807 453.653 856.674 458.742 850.338 458.742C844.002 458.742 838.87 453.653 838.869 447.38C838.869 441.106 844.002 436.016 850.338 436.016C856.674 436.016 861.807 441.106 861.807 447.38Z" fill="#655937" stroke="black" stroke-width="0.5"/>
<path d="M863.369 446.605C863.369 452.879 858.237 457.968 851.901 457.968C845.565 457.968 840.432 452.879 840.432 446.605C840.432 440.332 845.564 435.242 851.901 435.242C858.237 435.242 863.369 440.332 863.369 446.605Z" fill="url(#paint97_linear_4_454)" stroke="black" stroke-width="0.5"/>
<path d="M862.028 413.38C862.027 419.654 856.895 424.743 850.559 424.743C844.223 424.743 839.09 419.654 839.09 413.38C839.09 407.107 844.223 402.017 850.559 402.017C856.895 402.017 862.028 407.107 862.028 413.38Z" fill="#655937" stroke="black" stroke-width="0.5"/>
<path d="M863.59 412.606C863.59 418.879 858.457 423.968 852.121 423.968C845.785 423.968 840.653 418.879 840.653 412.606C840.653 406.333 845.785 401.243 852.121 401.243C858.457 401.243 863.59 406.333 863.59 412.606Z" fill="url(#paint98_linear_4_454)" stroke="black" stroke-width="0.5"/>
<path d="M862.248 379.381C862.248 385.654 857.115 390.743 850.779 390.743C844.443 390.743 839.311 385.654 839.311 379.381C839.311 373.108 844.443 368.018 850.779 368.018C857.116 368.018 862.248 373.108 862.248 379.381Z" fill="#655937" stroke="black" stroke-width="0.5"/>
<path d="M863.811 378.607C863.81 384.88 858.678 389.969 852.342 389.969C846.006 389.969 840.873 384.88 840.873 378.607C840.873 372.333 846.006 367.244 852.342 367.244C858.678 367.244 863.811 372.333 863.811 378.607Z" fill="url(#paint99_linear_4_454)" stroke="black" stroke-width="0.5"/>
<path d="M862.469 345.382C862.469 351.655 857.336 356.744 851 356.744C844.664 356.744 839.532 351.655 839.531 345.382C839.531 339.108 844.664 334.018 851 334.018C857.336 334.018 862.469 339.108 862.469 345.382Z" fill="#655937" stroke="black" stroke-width="0.5"/>
<path d="M864.031 344.608C864.031 350.881 858.899 355.97 852.563 355.97C846.227 355.97 841.094 350.881 841.094 344.608C841.094 338.334 846.226 333.244 852.563 333.244C858.899 333.244 864.031 338.334 864.031 344.608Z" fill="url(#paint100_linear_4_454)" stroke="black" stroke-width="0.5"/>
<path d="M862.689 311.382C862.689 317.656 857.557 322.745 851.221 322.745C844.885 322.745 839.752 317.656 839.752 311.382C839.752 305.109 844.885 300.019 851.221 300.019C857.557 300.019 862.689 305.109 862.689 311.382Z" fill="#655937" stroke="black" stroke-width="0.5"/>
<path d="M864.252 310.608C864.252 316.881 859.119 321.971 852.783 321.971C846.447 321.971 841.315 316.881 841.314 310.608C841.314 304.335 846.447 299.245 852.783 299.245C859.119 299.245 864.252 304.335 864.252 310.608Z" fill="url(#paint101_linear_4_454)" stroke="black" stroke-width="0.5"/>
<path d="M862.91 277.383C862.91 283.656 857.777 288.745 851.441 288.745C845.105 288.745 839.973 283.656 839.973 277.383C839.973 271.11 845.105 266.02 851.441 266.02C857.778 266.02 862.91 271.11 862.91 277.383Z" fill="#655937" stroke="black" stroke-width="0.5"/>
<path d="M864.473 276.609C864.472 282.882 859.34 287.971 853.004 287.971C846.668 287.971 841.535 282.882 841.535 276.609C841.535 270.336 846.668 265.246 853.004 265.246C859.34 265.246 864.473 270.336 864.473 276.609Z" fill="url(#paint102_linear_4_454)" stroke="black" stroke-width="0.5"/>
<path d="M863.131 243.384C863.131 249.657 857.998 254.746 851.662 254.746C845.326 254.746 840.193 249.657 840.193 243.384C840.193 237.11 845.326 232.021 851.662 232.021C857.998 232.021 863.131 237.11 863.131 243.384Z" fill="#655937" stroke="black" stroke-width="0.5"/>
<path d="M864.693 242.61C864.693 248.883 859.561 253.972 853.224 253.972C846.888 253.972 841.756 248.883 841.756 242.61C841.756 236.336 846.888 231.246 853.224 231.246C859.561 231.246 864.693 236.336 864.693 242.61Z" fill="url(#paint103_linear_4_454)" stroke="black" stroke-width="0.5"/>
<path d="M863.351 209.385C863.351 215.658 858.219 220.747 851.883 220.747C845.547 220.747 840.414 215.658 840.414 209.385C840.414 203.111 845.547 198.021 851.883 198.021C858.219 198.021 863.351 203.111 863.351 209.385Z" fill="#655937" stroke="black" stroke-width="0.5"/>
<path d="M864.914 208.61C864.914 214.884 859.781 219.973 853.445 219.973C847.109 219.973 841.977 214.884 841.976 208.61C841.976 202.337 847.109 197.247 853.445 197.247C859.781 197.247 864.914 202.337 864.914 208.61Z" fill="url(#paint104_linear_4_454)" stroke="black" stroke-width="0.5"/>
<path d="M863.572 175.385C863.572 181.659 858.439 186.748 852.103 186.748C845.767 186.748 840.635 181.659 840.635 175.385C840.635 169.112 845.767 164.022 852.103 164.022C858.439 164.022 863.572 169.112 863.572 175.385Z" fill="#655937" stroke="black" stroke-width="0.5"/>
<path d="M865.135 174.611C865.134 180.884 860.002 185.973 853.666 185.973C847.33 185.973 842.197 180.884 842.197 174.611C842.197 168.338 847.33 163.248 853.666 163.248C860.002 163.248 865.135 168.338 865.135 174.611Z" fill="url(#paint105_linear_4_454)" stroke="black" stroke-width="0.5"/>
<path d="M863.793 141.386C863.793 147.659 858.66 152.748 852.324 152.748C845.988 152.748 840.855 147.659 840.855 141.386C840.855 135.113 845.988 130.023 852.324 130.023C858.66 130.023 863.793 135.113 863.793 141.386Z" fill="#655937" stroke="black" stroke-width="0.5"/>
<path d="M865.355 140.612C865.355 146.885 860.223 151.974 853.886 151.974C847.55 151.974 842.418 146.885 842.418 140.612C842.418 134.338 847.55 129.249 853.886 129.249C860.223 129.249 865.355 134.338 865.355 140.612Z" fill="url(#paint106_linear_4_454)" stroke="black" stroke-width="0.5"/>
<path d="M902.807 147.387C902.807 153.661 897.674 158.75 891.338 158.75C885.002 158.75 879.87 153.661 879.869 147.387C879.869 141.114 885.002 136.024 891.338 136.024C897.674 136.024 902.807 141.114 902.807 147.387Z" fill="#655937" stroke="black" stroke-width="0.5"/>
<path d="M904.369 146.613C904.369 152.887 899.237 157.976 892.901 157.976C886.565 157.976 881.432 152.887 881.432 146.613C881.432 140.34 886.564 135.25 892.901 135.25C899.237 135.25 904.369 140.34 904.369 146.613Z" fill="url(#paint107_linear_4_454)" stroke="black" stroke-width="0.5"/>
<path d="M942.807 165.387C942.807 171.661 937.674 176.75 931.338 176.75C925.002 176.75 919.87 171.661 919.869 165.387C919.869 159.114 925.002 154.024 931.338 154.024C937.674 154.024 942.807 159.114 942.807 165.387Z" fill="#655937" stroke="black" stroke-width="0.5"/>
<path d="M944.369 164.613C944.369 170.887 939.237 175.976 932.901 175.976C926.565 175.976 921.432 170.887 921.432 164.613C921.432 158.34 926.564 153.25 932.901 153.25C939.237 153.25 944.369 158.34 944.369 164.613Z" fill="url(#paint108_linear_4_454)" stroke="black" stroke-width="0.5"/>
<path d="M968.807 195.387C968.807 201.661 963.674 206.75 957.338 206.75C951.002 206.75 945.87 201.661 945.869 195.387C945.869 189.114 951.002 184.024 957.338 184.024C963.674 184.024 968.807 189.114 968.807 195.387Z" fill="#655937" stroke="black" stroke-width="0.5"/>
<path d="M970.369 194.613C970.369 200.887 965.237 205.976 958.901 205.976C952.565 205.976 947.432 200.887 947.432 194.613C947.432 188.34 952.564 183.25 958.901 183.25C965.237 183.25 970.369 188.34 970.369 194.613Z" fill="url(#paint109_linear_4_454)" stroke="black" stroke-width="0.5"/>
<path d="M983.807 231.387C983.807 237.661 978.674 242.75 972.338 242.75C966.002 242.75 960.87 237.661 960.869 231.387C960.869 225.114 966.002 220.024 972.338 220.024C978.674 220.024 983.807 225.114 983.807 231.387Z" fill="#655937" stroke="black" stroke-width="0.5"/>
<path d="M985.369 230.613C985.369 236.887 980.237 241.976 973.901 241.976C967.565 241.976 962.432 236.887 962.432 230.613C962.432 224.34 967.564 219.25 973.901 219.25C980.237 219.25 985.369 224.34 985.369 230.613Z" fill="url(#paint110_linear_4_454)" stroke="black" stroke-width="0.5"/>
<path d="M983.807 273.387C983.807 279.661 978.674 284.75 972.338 284.75C966.002 284.75 960.87 279.661 960.869 273.387C960.869 267.114 966.002 262.024 972.338 262.024C978.674 262.024 983.807 267.114 983.807 273.387Z" fill="#655937" stroke="black" stroke-width="0.5"/>
<path d="M985.369 272.613C985.369 278.887 980.237 283.976 973.901 283.976C967.565 283.976 962.432 278.887 962.432 272.613C962.432 266.34 967.564 261.25 973.901 261.25C980.237 261.25 985.369 266.34 985.369 272.613Z" fill="url(#paint111_linear_4_454)" stroke="black" stroke-width="0.5"/>
<path d="M970.807 312.387C970.807 318.661 965.674 323.75 959.338 323.75C953.002 323.75 947.87 318.661 947.869 312.387C947.869 306.114 953.002 301.024 959.338 301.024C965.674 301.024 970.807 306.114 970.807 312.387Z" fill="#655937" stroke="black" stroke-width="0.5"/>
<path d="M972.369 311.613C972.369 317.887 967.237 322.976 960.901 322.976C954.565 322.976 949.432 317.887 949.432 311.613C949.432 305.34 954.564 300.25 960.901 300.25C967.237 300.25 972.369 305.34 972.369 311.613Z" fill="url(#paint112_linear_4_454)" stroke="black" stroke-width="0.5"/>
<path d="M945.807 341.387C945.807 347.661 940.674 352.75 934.338 352.75C928.002 352.75 922.87 347.661 922.869 341.387C922.869 335.114 928.002 330.024 934.338 330.024C940.674 330.024 945.807 335.114 945.807 341.387Z" fill="#655937" stroke="black" stroke-width="0.5"/>
<path d="M947.369 340.613C947.369 346.887 942.237 351.976 935.901 351.976C929.565 351.976 924.432 346.887 924.432 340.613C924.432 334.34 929.564 329.25 935.901 329.25C942.237 329.25 947.369 334.34 947.369 340.613Z" fill="url(#paint113_linear_4_454)" stroke="black" stroke-width="0.5"/>
<path d="M908.807 365.387C908.807 371.661 903.674 376.75 897.338 376.75C891.002 376.75 885.87 371.661 885.869 365.387C885.869 359.114 891.002 354.024 897.338 354.024C903.674 354.024 908.807 359.114 908.807 365.387Z" fill="#655937" stroke="black" stroke-width="0.5"/>
<path d="M910.369 364.613C910.369 370.887 905.237 375.976 898.901 375.976C892.565 375.976 887.432 370.887 887.432 364.613C887.432 358.34 892.564 353.25 898.901 353.25C905.237 353.25 910.369 358.34 910.369 364.613Z" fill="url(#paint114_linear_4_454)" stroke="black" stroke-width="0.5"/>
<path d="M851.786 470.812C858.059 470.813 863.149 475.945 863.149 482.281C863.149 488.617 858.059 493.75 851.786 493.75C845.513 493.75 840.423 488.617 840.423 482.281C840.423 475.945 845.513 470.812 851.786 470.812Z" fill="#655937" stroke="black" stroke-width="0.5"/>
<path d="M851.012 469.25C857.285 469.25 862.374 474.383 862.374 480.719C862.374 487.055 857.285 492.187 851.012 492.188C844.739 492.188 839.649 487.055 839.649 480.719C839.649 474.383 844.739 469.25 851.012 469.25Z" fill="url(#paint115_linear_4_454)" stroke="black" stroke-width="0.5"/>
<defs>
<radialGradient id="paint0_radial_4_454" cx="0" cy="0" r="1" gradientUnits="userSpaceOnUse" gradientTransform="translate(494.619 24) scale(300 100)">
<stop/>
<stop offset="1"/>
</radialGradient>
<radialGradient id="paint1_radial_4_454" cx="0" cy="0" r="1" gradientUnits="userSpaceOnUse" gradientTransform="translate(837.119 533) scale(119 213)">
<stop/>
<stop offset="1"/>
</radialGradient>
<radialGradient id="paint2_radial_4_454" cx="0" cy="0" r="1" gradientUnits="userSpaceOnUse" gradientTransform="translate(837.119 533) scale(119 213)">
<stop/>
<stop offset="1"/>
</radialGradient>
<radialGradient id="paint3_radial_4_454" cx="0" cy="0" r="1" gradientUnits="userSpaceOnUse" gradientTransform="translate(494.619 24) scale(300 100)">
<stop/>
<stop offset="1"/>
</radialGradient>
<radialGradient id="paint4_radial_4_454" cx="0" cy="0" r="1" gradientUnits="userSpaceOnUse" gradientTransform="translate(498.119 24) rotate(180) scale(300 100)">
<stop/>
<stop offset="1"/>
</radialGradient>
<radialGradient id="paint5_radial_4_454" cx="0" cy="0" r="1" gradientUnits="userSpaceOnUse" gradientTransform="translate(155.619 533) rotate(180) scale(119 213)">
<stop/>
<stop offset="1"/>
</radialGradient>
<radialGradient id="paint6_radial_4_454" cx="0" cy="0" r="1" gradientUnits="userSpaceOnUse" gradientTransform="translate(155.619 533) rotate(180) scale(119 213)">
<stop/>
<stop offset="1"/>
</radialGradient>
<radialGradient id="paint7_radial_4_454" cx="0" cy="0" r="1" gradientUnits="userSpaceOnUse" gradientTransform="translate(498.119 24) rotate(180) scale(300 100)">
<stop/>
<stop offset="1"/>
</radialGradient>
<linearGradient id="paint8_linear_4_454" x1="846.766" y1="472.447" x2="855.983" y2="482.86" gradientUnits="userSpaceOnUse">
<stop stop-color="#B58800"/>
<stop offset="1" stop-color="#FFD900"/>
</linearGradient>
<linearGradient id="paint9_linear_4_454" x1="812.766" y1="472.447" x2="821.983" y2="482.86" gradientUnits="userSpaceOnUse">
<stop stop-color="#B58800"/>
<stop offset="1" stop-color="#FFD900"/>
</linearGradient>
<linearGradient id="paint10_linear_4_454" x1="812.766" y1="472.447" x2="821.983" y2="482.86" gradientUnits="userSpaceOnUse">
<stop stop-color="#B58800"/>
<stop offset="1" stop-color="#FFD900"/>
</linearGradient>
<linearGradient id="paint11_linear_4_454" x1="778.766" y1="472.447" x2="787.983" y2="482.86" gradientUnits="userSpaceOnUse">
<stop stop-color="#B58800"/>
<stop offset="1" stop-color="#FFD900"/>
</linearGradient>
<linearGradient id="paint12_linear_4_454" x1="778.766" y1="472.447" x2="787.983" y2="482.86" gradientUnits="userSpaceOnUse">
<stop stop-color="#B58800"/>
<stop offset="1" stop-color="#FFD900"/>
</linearGradient>
<linearGradient id="paint13_linear_4_454" x1="744.766" y1="472.447" x2="753.983" y2="482.86" gradientUnits="userSpaceOnUse">
<stop stop-color="#B58800"/>
<stop offset="1" stop-color="#FFD900"/>
</linearGradient>
<linearGradient id="paint14_linear_4_454" x1="744.766" y1="472.447" x2="753.983" y2="482.86" gradientUnits="userSpaceOnUse">
<stop stop-color="#B58800"/>
<stop offset="1" stop-color="#FFD900"/>
</linearGradient>
<linearGradient id="paint15_linear_4_454" x1="710.766" y1="472.447" x2="719.983" y2="482.86" gradientUnits="userSpaceOnUse">
<stop stop-color="#B58800"/>
<stop offset="1" stop-color="#FFD900"/>
</linearGradient>
<linearGradient id="paint16_linear_4_454" x1="676.766" y1="472.447" x2="685.983" y2="482.86" gradientUnits="userSpaceOnUse">
<stop stop-color="#B58800"/>
<stop offset="1" stop-color="#FFD900"/>
</linearGradient>
<linearGradient id="paint17_linear_4_454" x1="642.766" y1="472.447" x2="651.983" y2="482.86" gradientUnits="userSpaceOnUse">
<stop stop-color="#B58800"/>
<stop offset="1" stop-color="#FFD900"/>
</linearGradient>
<linearGradient id="paint18_linear_4_454" x1="642.766" y1="472.447" x2="651.983" y2="482.86" gradientUnits="userSpaceOnUse">
<stop stop-color="#B58800"/>
<stop offset="1" stop-color="#FFD900"/>
</linearGradient>
<linearGradient id="paint19_linear_4_454" x1="608.766" y1="472.447" x2="617.983" y2="482.86" gradientUnits="userSpaceOnUse">
<stop stop-color="#B58800"/>
<stop offset="1" stop-color="#FFD900"/>
</linearGradient>
<linearGradient id="paint20_linear_4_454" x1="574.766" y1="472.447" x2="583.983" y2="482.86" gradientUnits="userSpaceOnUse">
<stop stop-color="#B58800"/>
<stop offset="1" stop-color="#FFD900"/>
</linearGradient>
<linearGradient id="paint21_linear_4_454" x1="540.766" y1="472.447" x2="549.983" y2="482.86" gradientUnits="userSpaceOnUse">
<stop stop-color="#B58800"/>
<stop offset="1" stop-color="#FFD900"/>
</linearGradient>
<linearGradient id="paint22_linear_4_454" x1="506.766" y1="472.447" x2="515.983" y2="482.86" gradientUnits="userSpaceOnUse">
<stop stop-color="#B58800"/>
<stop offset="1" stop-color="#FFD900"/>
</linearGradient>
<linearGradient id="paint23_linear_4_454" x1="472.766" y1="472.447" x2="481.983" y2="482.86" gradientUnits="userSpaceOnUse">
<stop stop-color="#B58800"/>
<stop offset="1" stop-color="#FFD900"/>
</linearGradient>
<linearGradient id="paint24_linear_4_454" x1="438.766" y1="472.447" x2="447.983" y2="482.86" gradientUnits="userSpaceOnUse">
<stop stop-color="#B58800"/>
<stop offset="1" stop-color="#FFD900"/>
</linearGradient>
<linearGradient id="paint25_linear_4_454" x1="543.766" y1="107.447" x2="552.983" y2="117.86" gradientUnits="userSpaceOnUse">
<stop stop-color="#B58800"/>
<stop offset="1" stop-color="#FFD900"/>
</linearGradient>
<linearGradient id="paint26_linear_4_454" x1="509.766" y1="107.447" x2="518.983" y2="117.86" gradientUnits="userSpaceOnUse">
<stop stop-color="#B58800"/>
<stop offset="1" stop-color="#FFD900"/>
</linearGradient>
<linearGradient id="paint27_linear_4_454" x1="402.119" y1="112.5" x2="576.619" y2="48.5" gradientUnits="userSpaceOnUse">
<stop/>
<stop offset="1" stop-color="#0F6CA9"/>
</linearGradient>
<linearGradient id="paint28_linear_4_454" x1="475.766" y1="107.447" x2="484.983" y2="117.86" gradientUnits="userSpaceOnUse">
<stop stop-color="#B58800"/>
<stop offset="1" stop-color="#FFD900"/>
</linearGradient>
<linearGradient id="paint29_linear_4_454" x1="859.917" y1="193.406" x2="888.625" y2="323.313" gradientUnits="userSpaceOnUse">
<stop/>
<stop offset="1" stop-color="#0F6CA9"/>
</linearGradient>
<linearGradient id="paint30_linear_4_454" x1="132.354" y1="195.082" x2="103.646" y2="324.989" gradientUnits="userSpaceOnUse">
<stop/>
<stop offset="1" stop-color="#0F6CA9"/>
</linearGradient>
<linearGradient id="paint31_linear_4_454" x1="441.766" y1="107.447" x2="450.983" y2="117.86" gradientUnits="userSpaceOnUse">
<stop stop-color="#B58800"/>
<stop offset="1" stop-color="#FFD900"/>
</linearGradient>
<linearGradient id="paint32_linear_4_454" x1="407.766" y1="107.447" x2="416.983" y2="117.86" gradientUnits="userSpaceOnUse">
<stop stop-color="#B58800"/>
<stop offset="1" stop-color="#FFD900"/>
</linearGradient>
<linearGradient id="paint33_linear_4_454" x1="373.766" y1="107.447" x2="382.983" y2="117.86" gradientUnits="userSpaceOnUse">
<stop stop-color="#B58800"/>
<stop offset="1" stop-color="#FFD900"/>
</linearGradient>
<linearGradient id="paint34_linear_4_454" x1="339.766" y1="107.447" x2="348.983" y2="117.86" gradientUnits="userSpaceOnUse">
<stop stop-color="#B58800"/>
<stop offset="1" stop-color="#FFD900"/>
</linearGradient>
<linearGradient id="paint35_linear_4_454" x1="349.766" y1="69.4467" x2="358.983" y2="79.8597" gradientUnits="userSpaceOnUse">
<stop stop-color="#B58800"/>
<stop offset="1" stop-color="#FFD900"/>
</linearGradient>
<linearGradient id="paint36_linear_4_454" x1="378.766" y1="38.4467" x2="387.983" y2="48.8597" gradientUnits="userSpaceOnUse">
<stop stop-color="#B58800"/>
<stop offset="1" stop-color="#FFD900"/>
</linearGradient>
<linearGradient id="paint37_linear_4_454" x1="417.766" y1="19.4467" x2="426.983" y2="29.8597" gradientUnits="userSpaceOnUse">
<stop stop-color="#B58800"/>
<stop offset="1" stop-color="#FFD900"/>
</linearGradient>
<linearGradient id="paint38_linear_4_454" x1="459.766" y1="7.44669" x2="468.983" y2="17.8597" gradientUnits="userSpaceOnUse">
<stop stop-color="#B58800"/>
<stop offset="1" stop-color="#FFD900"/>
</linearGradient>
<linearGradient id="paint39_linear_4_454" x1="501.766" y1="5.44669" x2="510.983" y2="15.8597" gradientUnits="userSpaceOnUse">
<stop stop-color="#B58800"/>
<stop offset="1" stop-color="#FFD900"/>
</linearGradient>
<linearGradient id="paint40_linear_4_454" x1="542.766" y1="9.44669" x2="551.983" y2="19.8597" gradientUnits="userSpaceOnUse">
<stop stop-color="#B58800"/>
<stop offset="1" stop-color="#FFD900"/>
</linearGradient>
<linearGradient id="paint41_linear_4_454" x1="579.766" y1="23.4467" x2="588.983" y2="33.8597" gradientUnits="userSpaceOnUse">
<stop stop-color="#B58800"/>
<stop offset="1" stop-color="#FFD900"/>
</linearGradient>
<linearGradient id="paint42_linear_4_454" x1="616.766" y1="44.4467" x2="625.983" y2="54.8597" gradientUnits="userSpaceOnUse">
<stop stop-color="#B58800"/>
<stop offset="1" stop-color="#FFD900"/>
</linearGradient>
<linearGradient id="paint43_linear_4_454" x1="640.766" y1="71.4467" x2="649.983" y2="81.8597" gradientUnits="userSpaceOnUse">
<stop stop-color="#B58800"/>
<stop offset="1" stop-color="#FFD900"/>
</linearGradient>
<linearGradient id="paint44_linear_4_454" x1="305.766" y1="107.447" x2="314.983" y2="117.86" gradientUnits="userSpaceOnUse">
<stop stop-color="#B58800"/>
<stop offset="1" stop-color="#FFD900"/>
</linearGradient>
<linearGradient id="paint45_linear_4_454" x1="271.766" y1="107.447" x2="280.983" y2="117.86" gradientUnits="userSpaceOnUse">
<stop stop-color="#B58800"/>
<stop offset="1" stop-color="#FFD900"/>
</linearGradient>
<linearGradient id="paint46_linear_4_454" x1="237.766" y1="107.447" x2="246.983" y2="117.86" gradientUnits="userSpaceOnUse">
<stop stop-color="#B58800"/>
<stop offset="1" stop-color="#FFD900"/>
</linearGradient>
<linearGradient id="paint47_linear_4_454" x1="203.766" y1="107.447" x2="212.983" y2="117.86" gradientUnits="userSpaceOnUse">
<stop stop-color="#B58800"/>
<stop offset="1" stop-color="#FFD900"/>
</linearGradient>
<linearGradient id="paint48_linear_4_454" x1="169.766" y1="107.447" x2="178.983" y2="117.86" gradientUnits="userSpaceOnUse">
<stop stop-color="#B58800"/>
<stop offset="1" stop-color="#FFD900"/>
</linearGradient>
<linearGradient id="paint49_linear_4_454" x1="135.766" y1="107.447" x2="144.983" y2="117.86" gradientUnits="userSpaceOnUse">
<stop stop-color="#B58800"/>
<stop offset="1" stop-color="#FFD900"/>
</linearGradient>
<linearGradient id="paint50_linear_4_454" x1="850.766" y1="107.447" x2="859.983" y2="117.86" gradientUnits="userSpaceOnUse">
<stop stop-color="#B58800"/>
<stop offset="1" stop-color="#FFD900"/>
</linearGradient>
<linearGradient id="paint51_linear_4_454" x1="816.766" y1="107.447" x2="825.983" y2="117.86" gradientUnits="userSpaceOnUse">
<stop stop-color="#B58800"/>
<stop offset="1" stop-color="#FFD900"/>
</linearGradient>
<linearGradient id="paint52_linear_4_454" x1="782.766" y1="107.447" x2="791.983" y2="117.86" gradientUnits="userSpaceOnUse">
<stop stop-color="#B58800"/>
<stop offset="1" stop-color="#FFD900"/>
</linearGradient>
<linearGradient id="paint53_linear_4_454" x1="748.766" y1="107.447" x2="757.983" y2="117.86" gradientUnits="userSpaceOnUse">
<stop stop-color="#B58800"/>
<stop offset="1" stop-color="#FFD900"/>
</linearGradient>
<linearGradient id="paint54_linear_4_454" x1="714.766" y1="107.447" x2="723.983" y2="117.86" gradientUnits="userSpaceOnUse">
<stop stop-color="#B58800"/>
<stop offset="1" stop-color="#FFD900"/>
</linearGradient>
<linearGradient id="paint55_linear_4_454" x1="680.766" y1="107.447" x2="689.983" y2="117.86" gradientUnits="userSpaceOnUse">
<stop stop-color="#B58800"/>
<stop offset="1" stop-color="#FFD900"/>
</linearGradient>
<linearGradient id="paint56_linear_4_454" x1="646.766" y1="107.447" x2="655.983" y2="117.86" gradientUnits="userSpaceOnUse">
<stop stop-color="#B58800"/>
<stop offset="1" stop-color="#FFD900"/>
</linearGradient>
<linearGradient id="paint57_linear_4_454" x1="612.766" y1="107.447" x2="621.983" y2="117.86" gradientUnits="userSpaceOnUse">
<stop stop-color="#B58800"/>
<stop offset="1" stop-color="#FFD900"/>
</linearGradient>
<linearGradient id="paint58_linear_4_454" x1="578.766" y1="107.447" x2="587.983" y2="117.86" gradientUnits="userSpaceOnUse">
<stop stop-color="#B58800"/>
<stop offset="1" stop-color="#FFD900"/>
</linearGradient>
<linearGradient id="paint59_linear_4_454" x1="544.766" y1="107.447" x2="553.983" y2="117.86" gradientUnits="userSpaceOnUse">
<stop stop-color="#B58800"/>
<stop offset="1" stop-color="#FFD900"/>
</linearGradient>
<linearGradient id="paint60_linear_4_454" x1="510.766" y1="107.447" x2="519.983" y2="117.86" gradientUnits="userSpaceOnUse">
<stop stop-color="#B58800"/>
<stop offset="1" stop-color="#FFD900"/>
</linearGradient>
<linearGradient id="paint61_linear_4_454" x1="476.766" y1="107.447" x2="485.983" y2="117.86" gradientUnits="userSpaceOnUse">
<stop stop-color="#B58800"/>
<stop offset="1" stop-color="#FFD900"/>
</linearGradient>
<linearGradient id="paint62_linear_4_454" x1="442.766" y1="107.447" x2="451.983" y2="117.86" gradientUnits="userSpaceOnUse">
<stop stop-color="#B58800"/>
<stop offset="1" stop-color="#FFD900"/>
</linearGradient>
<linearGradient id="paint63_linear_4_454" x1="146.173" y1="476.138" x2="135.76" y2="485.355" gradientUnits="userSpaceOnUse">
<stop stop-color="#B58800"/>
<stop offset="1" stop-color="#FFD900"/>
</linearGradient>
<linearGradient id="paint64_linear_4_454" x1="146.393" y1="442.139" x2="135.98" y2="451.356" gradientUnits="userSpaceOnUse">
<stop stop-color="#B58800"/>
<stop offset="1" stop-color="#FFD900"/>
</linearGradient>
<linearGradient id="paint65_linear_4_454" x1="146.614" y1="408.139" x2="136.201" y2="417.356" gradientUnits="userSpaceOnUse">
<stop stop-color="#B58800"/>
<stop offset="1" stop-color="#FFD900"/>
</linearGradient>
<linearGradient id="paint66_linear_4_454" x1="146.835" y1="374.14" x2="136.422" y2="383.357" gradientUnits="userSpaceOnUse">
<stop stop-color="#B58800"/>
<stop offset="1" stop-color="#FFD900"/>
</linearGradient>
<linearGradient id="paint67_linear_4_454" x1="147.055" y1="340.141" x2="136.642" y2="349.358" gradientUnits="userSpaceOnUse">
<stop stop-color="#B58800"/>
<stop offset="1" stop-color="#FFD900"/>
</linearGradient>
<linearGradient id="paint68_linear_4_454" x1="147.276" y1="306.141" x2="136.863" y2="315.358" gradientUnits="userSpaceOnUse">
<stop stop-color="#B58800"/>
<stop offset="1" stop-color="#FFD900"/>
</linearGradient>
<linearGradient id="paint69_linear_4_454" x1="147.497" y1="272.142" x2="137.084" y2="281.359" gradientUnits="userSpaceOnUse">
<stop stop-color="#B58800"/>
<stop offset="1" stop-color="#FFD900"/>
</linearGradient>
<linearGradient id="paint70_linear_4_454" x1="147.717" y1="238.143" x2="137.304" y2="247.36" gradientUnits="userSpaceOnUse">
<stop stop-color="#B58800"/>
<stop offset="1" stop-color="#FFD900"/>
</linearGradient>
<linearGradient id="paint71_linear_4_454" x1="147.938" y1="204.144" x2="137.525" y2="213.361" gradientUnits="userSpaceOnUse">
<stop stop-color="#B58800"/>
<stop offset="1" stop-color="#FFD900"/>
</linearGradient>
<linearGradient id="paint72_linear_4_454" x1="148.159" y1="170.144" x2="137.746" y2="179.361" gradientUnits="userSpaceOnUse">
<stop stop-color="#B58800"/>
<stop offset="1" stop-color="#FFD900"/>
</linearGradient>
<linearGradient id="paint73_linear_4_454" x1="148.379" y1="136.145" x2="137.966" y2="145.362" gradientUnits="userSpaceOnUse">
<stop stop-color="#B58800"/>
<stop offset="1" stop-color="#FFD900"/>
</linearGradient>
<linearGradient id="paint74_linear_4_454" x1="114.173" y1="142.146" x2="103.76" y2="151.364" gradientUnits="userSpaceOnUse">
<stop stop-color="#B58800"/>
<stop offset="1" stop-color="#FFD900"/>
</linearGradient>
<linearGradient id="paint75_linear_4_454" x1="79.1727" y1="158.146" x2="68.7597" y2="167.364" gradientUnits="userSpaceOnUse">
<stop stop-color="#B58800"/>
<stop offset="1" stop-color="#FFD900"/>
</linearGradient>
<linearGradient id="paint76_linear_4_454" x1="50.1727" y1="182.146" x2="39.7597" y2="191.364" gradientUnits="userSpaceOnUse">
<stop stop-color="#B58800"/>
<stop offset="1" stop-color="#FFD900"/>
</linearGradient>
<linearGradient id="paint77_linear_4_454" x1="32.1727" y1="215.146" x2="21.7597" y2="224.364" gradientUnits="userSpaceOnUse">
<stop stop-color="#B58800"/>
<stop offset="1" stop-color="#FFD900"/>
</linearGradient>
<linearGradient id="paint78_linear_4_454" x1="27.1727" y1="253.146" x2="16.7597" y2="262.364" gradientUnits="userSpaceOnUse">
<stop stop-color="#B58800"/>
<stop offset="1" stop-color="#FFD900"/>
</linearGradient>
<linearGradient id="paint79_linear_4_454" x1="34.1727" y1="291.146" x2="23.7597" y2="300.364" gradientUnits="userSpaceOnUse">
<stop stop-color="#B58800"/>
<stop offset="1" stop-color="#FFD900"/>
</linearGradient>
<linearGradient id="paint80_linear_4_454" x1="53.1727" y1="325.146" x2="42.7597" y2="334.364" gradientUnits="userSpaceOnUse">
<stop stop-color="#B58800"/>
<stop offset="1" stop-color="#FFD900"/>
</linearGradient>
<linearGradient id="paint81_linear_4_454" x1="84.1727" y1="350.146" x2="73.7597" y2="359.364" gradientUnits="userSpaceOnUse">
<stop stop-color="#B58800"/>
<stop offset="1" stop-color="#FFD900"/>
</linearGradient>
<linearGradient id="paint82_linear_4_454" x1="116.173" y1="364.146" x2="105.76" y2="373.364" gradientUnits="userSpaceOnUse">
<stop stop-color="#B58800"/>
<stop offset="1" stop-color="#FFD900"/>
</linearGradient>
<linearGradient id="paint83_linear_4_454" x1="540.766" y1="472.447" x2="549.983" y2="482.86" gradientUnits="userSpaceOnUse">
<stop stop-color="#B58800"/>
<stop offset="1" stop-color="#FFD900"/>
</linearGradient>
<linearGradient id="paint84_linear_4_454" x1="506.766" y1="472.447" x2="515.983" y2="482.86" gradientUnits="userSpaceOnUse">
<stop stop-color="#B58800"/>
<stop offset="1" stop-color="#FFD900"/>
</linearGradient>
<linearGradient id="paint85_linear_4_454" x1="472.766" y1="472.447" x2="481.983" y2="482.86" gradientUnits="userSpaceOnUse">
<stop stop-color="#B58800"/>
<stop offset="1" stop-color="#FFD900"/>
</linearGradient>
<linearGradient id="paint86_linear_4_454" x1="438.766" y1="472.447" x2="447.983" y2="482.86" gradientUnits="userSpaceOnUse">
<stop stop-color="#B58800"/>
<stop offset="1" stop-color="#FFD900"/>
</linearGradient>
<linearGradient id="paint87_linear_4_454" x1="404.766" y1="472.447" x2="413.983" y2="482.86" gradientUnits="userSpaceOnUse">
<stop stop-color="#B58800"/>
<stop offset="1" stop-color="#FFD900"/>
</linearGradient>
<linearGradient id="paint88_linear_4_454" x1="370.766" y1="472.447" x2="379.983" y2="482.86" gradientUnits="userSpaceOnUse">
<stop stop-color="#B58800"/>
<stop offset="1" stop-color="#FFD900"/>
</linearGradient>
<linearGradient id="paint89_linear_4_454" x1="336.766" y1="472.447" x2="345.983" y2="482.86" gradientUnits="userSpaceOnUse">
<stop stop-color="#B58800"/>
<stop offset="1" stop-color="#FFD900"/>
</linearGradient>
<linearGradient id="paint90_linear_4_454" x1="302.766" y1="472.447" x2="311.983" y2="482.86" gradientUnits="userSpaceOnUse">
<stop stop-color="#B58800"/>
<stop offset="1" stop-color="#FFD900"/>
</linearGradient>
<linearGradient id="paint91_linear_4_454" x1="268.766" y1="472.447" x2="277.983" y2="482.86" gradientUnits="userSpaceOnUse">
<stop stop-color="#B58800"/>
<stop offset="1" stop-color="#FFD900"/>
</linearGradient>
<linearGradient id="paint92_linear_4_454" x1="234.766" y1="472.447" x2="243.983" y2="482.86" gradientUnits="userSpaceOnUse">
<stop stop-color="#B58800"/>
<stop offset="1" stop-color="#FFD900"/>
</linearGradient>
<linearGradient id="paint93_linear_4_454" x1="200.766" y1="472.447" x2="209.983" y2="482.86" gradientUnits="userSpaceOnUse">
<stop stop-color="#B58800"/>
<stop offset="1" stop-color="#FFD900"/>
</linearGradient>
<linearGradient id="paint94_linear_4_454" x1="166.766" y1="472.447" x2="175.983" y2="482.86" gradientUnits="userSpaceOnUse">
<stop stop-color="#B58800"/>
<stop offset="1" stop-color="#FFD900"/>
</linearGradient>
<linearGradient id="paint95_linear_4_454" x1="132.766" y1="472.447" x2="141.983" y2="482.86" gradientUnits="userSpaceOnUse">
<stop stop-color="#B58800"/>
<stop offset="1" stop-color="#FFD900"/>
</linearGradient>
<linearGradient id="paint96_linear_4_454" x1="849.545" y1="107.447" x2="858.762" y2="117.86" gradientUnits="userSpaceOnUse">
<stop stop-color="#B58800"/>
<stop offset="1" stop-color="#FFD900"/>
</linearGradient>
<linearGradient id="paint97_linear_4_454" x1="860.173" y1="442.139" x2="849.76" y2="451.356" gradientUnits="userSpaceOnUse">
<stop stop-color="#B58800"/>
<stop offset="1" stop-color="#FFD900"/>
</linearGradient>
<linearGradient id="paint98_linear_4_454" x1="860.393" y1="408.139" x2="849.98" y2="417.356" gradientUnits="userSpaceOnUse">
<stop stop-color="#B58800"/>
<stop offset="1" stop-color="#FFD900"/>
</linearGradient>
<linearGradient id="paint99_linear_4_454" x1="860.614" y1="374.14" x2="850.201" y2="383.357" gradientUnits="userSpaceOnUse">
<stop stop-color="#B58800"/>
<stop offset="1" stop-color="#FFD900"/>
</linearGradient>
<linearGradient id="paint100_linear_4_454" x1="860.835" y1="340.141" x2="850.422" y2="349.358" gradientUnits="userSpaceOnUse">
<stop stop-color="#B58800"/>
<stop offset="1" stop-color="#FFD900"/>
</linearGradient>
<linearGradient id="paint101_linear_4_454" x1="861.055" y1="306.141" x2="850.642" y2="315.358" gradientUnits="userSpaceOnUse">
<stop stop-color="#B58800"/>
<stop offset="1" stop-color="#FFD900"/>
</linearGradient>
<linearGradient id="paint102_linear_4_454" x1="861.276" y1="272.142" x2="850.863" y2="281.359" gradientUnits="userSpaceOnUse">
<stop stop-color="#B58800"/>
<stop offset="1" stop-color="#FFD900"/>
</linearGradient>
<linearGradient id="paint103_linear_4_454" x1="861.497" y1="238.143" x2="851.084" y2="247.36" gradientUnits="userSpaceOnUse">
<stop stop-color="#B58800"/>
<stop offset="1" stop-color="#FFD900"/>
</linearGradient>
<linearGradient id="paint104_linear_4_454" x1="861.717" y1="204.144" x2="851.304" y2="213.361" gradientUnits="userSpaceOnUse">
<stop stop-color="#B58800"/>
<stop offset="1" stop-color="#FFD900"/>
</linearGradient>
<linearGradient id="paint105_linear_4_454" x1="861.938" y1="170.144" x2="851.525" y2="179.361" gradientUnits="userSpaceOnUse">
<stop stop-color="#B58800"/>
<stop offset="1" stop-color="#FFD900"/>
</linearGradient>
<linearGradient id="paint106_linear_4_454" x1="862.159" y1="136.145" x2="851.746" y2="145.362" gradientUnits="userSpaceOnUse">
<stop stop-color="#B58800"/>
<stop offset="1" stop-color="#FFD900"/>
</linearGradient>
<linearGradient id="paint107_linear_4_454" x1="901.173" y1="142.146" x2="890.76" y2="151.364" gradientUnits="userSpaceOnUse">
<stop stop-color="#B58800"/>
<stop offset="1" stop-color="#FFD900"/>
</linearGradient>
<linearGradient id="paint108_linear_4_454" x1="941.173" y1="160.146" x2="930.76" y2="169.364" gradientUnits="userSpaceOnUse">
<stop stop-color="#B58800"/>
<stop offset="1" stop-color="#FFD900"/>
</linearGradient>
<linearGradient id="paint109_linear_4_454" x1="967.173" y1="190.146" x2="956.76" y2="199.364" gradientUnits="userSpaceOnUse">
<stop stop-color="#B58800"/>
<stop offset="1" stop-color="#FFD900"/>
</linearGradient>
<linearGradient id="paint110_linear_4_454" x1="982.173" y1="226.146" x2="971.76" y2="235.364" gradientUnits="userSpaceOnUse">
<stop stop-color="#B58800"/>
<stop offset="1" stop-color="#FFD900"/>
</linearGradient>
<linearGradient id="paint111_linear_4_454" x1="982.173" y1="268.146" x2="971.76" y2="277.364" gradientUnits="userSpaceOnUse">
<stop stop-color="#B58800"/>
<stop offset="1" stop-color="#FFD900"/>
</linearGradient>
<linearGradient id="paint112_linear_4_454" x1="969.173" y1="307.146" x2="958.76" y2="316.364" gradientUnits="userSpaceOnUse">
<stop stop-color="#B58800"/>
<stop offset="1" stop-color="#FFD900"/>
</linearGradient>
<linearGradient id="paint113_linear_4_454" x1="944.173" y1="336.146" x2="933.76" y2="345.364" gradientUnits="userSpaceOnUse">
<stop stop-color="#B58800"/>
<stop offset="1" stop-color="#FFD900"/>
</linearGradient>
<linearGradient id="paint114_linear_4_454" x1="907.173" y1="360.146" x2="896.76" y2="369.364" gradientUnits="userSpaceOnUse">
<stop stop-color="#B58800"/>
<stop offset="1" stop-color="#FFD900"/>
</linearGradient>
<linearGradient id="paint115_linear_4_454" x1="846.545" y1="472.447" x2="855.762" y2="482.86" gradientUnits="userSpaceOnUse">
<stop stop-color="#B58800"/>
<stop offset="1" stop-color="#FFD900"/>
</linearGradient>
</defs>
</svg>
