<svg width="105" height="94" viewBox="0 0 105 94" fill="none" xmlns="http://www.w3.org/2000/svg">
<path d="M24.95 87.4377C32.6367 80.8644 40.3233 74.5244 48.01 68.4177C55.69 72.6044 63.3733 76.651 71.06 80.5577M28.64 70.4677C41.5533 69.101 54.4633 67.8844 67.37 66.8177C75.12 66.3577 78.98 66.1777 81.95 64.9777C84.55 63.9677 86.67 62.4477 88 60.6177C89.5 58.5677 89.51 55.8077 89.51 50.1277C89.51 44.821 89.5067 39.3944 89.5 33.8477C89.51 27.3877 89.51 24.1477 88 21.5777C86.67 19.3177 84.56 17.4177 81.94 16.1477C78.99 14.7077 75.11 14.4877 67.37 14.0577C54.4633 13.291 41.5533 12.4377 28.64 11.4977C20.89 10.9177 17.02 10.6377 14.06 11.8377C11.46 12.9277 9.33 14.8377 8.01 17.2877C6.5 20.1077 6.51 23.8777 6.51 31.4477C6.51 38.061 6.50667 44.6744 6.5 51.2877C6.51 58.8477 6.5 62.6277 8.01 65.3977C9.33 67.8077 11.46 69.6577 14.05 70.6577C17.01 71.7677 20.88 71.3377 28.64 70.4677Z" stroke="#04226B" stroke-width="13" stroke-linecap="round" stroke-linejoin="round"/>
<path d="M29.95 83.4377C37.6367 76.8644 45.3233 70.5244 53.01 64.4177C60.69 68.6044 68.3733 72.651 76.06 76.5577M33.64 66.4677C46.5533 65.101 59.4633 63.8844 72.37 62.8177C80.12 62.3577 83.98 62.1777 86.95 60.9777C89.55 59.9677 91.67 58.4477 93 56.6177C94.5 54.5677 94.51 51.8077 94.51 46.1277C94.51 40.821 94.5067 35.3944 94.5 29.8477C94.51 23.3877 94.51 20.1477 93 17.5777C91.67 15.3177 89.56 13.4177 86.94 12.1477C83.99 10.7077 80.11 10.4877 72.37 10.0577C59.4633 9.29102 46.5533 8.43769 33.64 7.49769C25.89 6.91769 22.02 6.63769 19.06 7.83769C16.46 8.92769 14.33 10.8377 13.01 13.2877C11.5 16.1077 11.51 19.8777 11.51 27.4477C11.51 34.061 11.5067 40.6744 11.5 47.2877C11.51 54.8477 11.5 58.6277 13.01 61.3977C14.33 63.8077 16.46 65.6577 19.05 66.6577C22.01 67.7677 25.88 67.3377 33.64 66.4677Z" stroke="#0247C8" stroke-width="13" stroke-linecap="round" stroke-linejoin="round"/>
<path d="M32.95 80.4377C40.6367 73.8644 48.3233 67.5244 56.01 61.4177C63.69 65.6044 71.3733 69.651 79.06 73.5577M36.64 63.4677C49.5533 62.101 62.4633 60.8844 75.37 59.8177C83.12 59.3577 86.98 59.1777 89.95 57.9777C92.55 56.9677 94.67 55.4477 96 53.6177C97.5 51.5677 97.51 48.8077 97.51 43.1277C97.51 37.821 97.5067 32.3944 97.5 26.8477C97.51 20.3877 97.51 17.1477 96 14.5777C94.67 12.3177 92.56 10.4177 89.94 9.14769C86.99 7.70769 83.11 7.48769 75.37 7.05769C62.4633 6.29102 49.5533 5.43769 36.64 4.49769C28.89 3.91769 25.02 3.63769 22.06 4.83769C19.46 5.92769 17.33 7.83769 16.01 10.2877C14.5 13.1077 14.51 16.8777 14.51 24.4477C14.51 31.061 14.5067 37.6744 14.5 44.2877C14.51 51.8477 14.5 55.6277 16.01 58.3977C17.33 60.8077 19.46 62.6577 22.05 63.6577C25.01 64.7677 28.88 64.3377 36.64 63.4677Z" stroke="#B06806" stroke-width="6" stroke-linecap="round" stroke-linejoin="round"/>
<path d="M36.95 79.4377C44.6367 72.8644 52.3233 66.5244 60.01 60.4177C67.69 64.6044 75.3733 68.651 83.06 72.5577M40.64 62.4677C53.5533 61.101 66.4633 59.8844 79.37 58.8177C87.12 58.3577 90.98 58.1777 93.95 56.9777C96.55 55.9677 98.67 54.4477 100 52.6177C101.5 50.5677 101.51 47.8077 101.51 42.1277C101.51 36.821 101.507 31.3944 101.5 25.8477C101.51 19.3877 101.51 16.1477 100 13.5777C98.67 11.3177 96.56 9.41769 93.94 8.14769C90.99 6.70769 87.11 6.48769 79.37 6.05769C66.4633 5.29102 53.5533 4.43769 40.64 3.49769C32.89 2.91769 29.02 2.63769 26.06 3.83769C23.46 4.92769 21.33 6.83769 20.01 9.28769C18.5 12.1077 18.51 15.8777 18.51 23.4477C18.51 30.061 18.5067 36.6744 18.5 43.2877C18.51 50.8477 18.5 54.6277 20.01 57.3977C21.33 59.8077 23.46 61.6577 26.05 62.6577C29.01 63.7677 32.88 63.3377 40.64 62.4677Z" stroke="#FFF503" stroke-width="6" stroke-linecap="round" stroke-linejoin="round"/>
<path d="M18.5 36H19.5" stroke="#FCFFB2" stroke-width="5" stroke-linecap="round"/>
<path d="M18.5 36H19.5" stroke="#FFFFE3" stroke-width="4" stroke-linecap="round"/>
<path d="M100.5 36H101.5" stroke="#FCFFB2" stroke-width="5" stroke-linecap="round"/>
<path d="M100.5 36H101.5" stroke="#FFFFE3" stroke-width="4" stroke-linecap="round"/>
</svg>
