<svg width="128" height="109" viewBox="0 0 128 109" fill="none" xmlns="http://www.w3.org/2000/svg">
<g clip-path="url(#clip0_8_163)">
<path d="M78.8088 72.9529C88.75 64.6132 88.7498 51.0916 78.8087 42.7518C68.8675 34.4121 52.7497 34.4121 42.8086 42.7518L16.2212 52.5305C6.28006 60.8702 -2.16283 68.4067 20.4668 91.6958C34.3908 106.026 46.5258 100.036 56.4669 91.6958L78.8088 72.9529Z" stroke="#021E60" stroke-width="8" stroke-linecap="round" stroke-linejoin="round"/>
<path d="M60.5823 61.8518C63.0904 61.8518 65.1235 60.1461 65.1235 58.0421C65.1235 55.9381 63.0904 54.2324 60.5823 54.2324C58.0743 54.2324 56.0411 55.9381 56.0411 58.0421C56.0411 60.1461 58.0743 61.8518 60.5823 61.8518Z" stroke="#021E60" stroke-width="8" stroke-linecap="round" stroke-linejoin="round"/>
<path d="M93.9355 42.9181C93.177 41.2747 92.0564 39.7807 90.6388 38.5228C89.2212 37.265 87.5348 36.2683 85.6774 35.5906" stroke="#021E60" stroke-width="8" stroke-linecap="round" stroke-linejoin="round"/>
<path d="M105.29 36.6374C103.951 34.2896 101.985 32.1563 99.505 30.36C97.0251 28.5637 94.08 27.1397 90.8387 26.1696" stroke="#021E60" stroke-width="8" stroke-linecap="round" stroke-linejoin="round"/>
</g>
<g clip-path="url(#clip1_8_163)">
<path d="M82.9379 67.719C92.879 59.3792 92.8788 45.8577 82.9377 37.5179C72.9966 29.1782 56.8788 29.1782 46.9376 37.5179L20.3502 47.2966C10.4091 55.6363 1.9662 63.1728 24.5959 86.4619C38.5198 100.792 50.6548 94.8017 60.5959 86.4619L82.9379 67.719Z" stroke="#0841B7" stroke-width="8" stroke-linecap="round" stroke-linejoin="round"/>
<path d="M64.7113 56.6179C67.2194 56.6179 69.2526 54.9122 69.2526 52.8082C69.2526 50.7041 67.2194 48.9985 64.7113 48.9985C62.2033 48.9985 60.1701 50.7041 60.1701 52.8082C60.1701 54.9122 62.2033 56.6179 64.7113 56.6179Z" stroke="#0841B7" stroke-width="8" stroke-linecap="round" stroke-linejoin="round"/>
<path d="M98.0645 37.6842C97.306 36.0408 96.1855 34.5468 94.7679 33.2889C93.3502 32.0311 91.6638 31.0344 89.8064 30.3567" stroke="#0841B7" stroke-width="8" stroke-linecap="round" stroke-linejoin="round"/>
<path d="M109.419 31.4035C108.08 29.0557 106.114 26.9224 103.634 25.1261C101.154 23.3298 98.2091 21.9058 94.9677 20.9357" stroke="#0841B7" stroke-width="8" stroke-linecap="round" stroke-linejoin="round"/>
</g>
<g clip-path="url(#clip2_8_163)">
<path d="M89.1314 62.4851C99.0726 54.1453 99.0724 40.6238 89.1312 32.284C79.1901 23.9443 63.0723 23.9443 53.1312 32.284L26.5438 42.0627C16.6026 50.4024 8.15974 57.9389 30.7894 81.228C44.7134 95.5578 56.8483 89.5678 66.7895 81.228L89.1314 62.4851Z" stroke="#B67105" stroke-width="8" stroke-linecap="round" stroke-linejoin="round"/>
<path d="M70.9049 51.384C73.4129 51.384 75.4461 49.6783 75.4461 47.5743C75.4461 45.4702 73.4129 43.7646 70.9049 43.7646C68.3968 43.7646 66.3637 45.4702 66.3637 47.5743C66.3637 49.6783 68.3968 51.384 70.9049 51.384Z" stroke="#B67105" stroke-width="8" stroke-linecap="round" stroke-linejoin="round"/>
<path d="M104.258 32.4503C103.5 30.8069 102.379 29.3129 100.961 28.055C99.5438 26.7971 97.8573 25.8004 96 25.1228" stroke="#B67105" stroke-width="8" stroke-linecap="round" stroke-linejoin="round"/>
<path d="M115.613 26.1696C114.274 23.8217 112.308 21.6885 109.828 19.8922C107.348 18.0959 104.403 16.6719 101.161 15.7017" stroke="#B67105" stroke-width="8" stroke-linecap="round" stroke-linejoin="round"/>
</g>
<g clip-path="url(#clip3_8_163)">
<path d="M93.2605 59.3447C103.202 51.005 103.201 37.4834 93.2603 29.1437C83.3191 20.8039 67.2014 20.8039 57.2602 29.1437L30.6728 38.9223C20.7317 47.2621 12.2888 54.7985 34.9185 78.0877C48.8424 92.4174 60.9774 86.4274 70.9185 78.0877L93.2605 59.3447Z" stroke="#FFFE04" stroke-width="8" stroke-linecap="round" stroke-linejoin="round"/>
<path d="M75.0339 48.2436C77.542 48.2436 79.5752 46.538 79.5752 44.4339C79.5752 42.3299 77.542 40.6242 75.0339 40.6242C72.5259 40.6242 70.4927 42.3299 70.4927 44.4339C70.4927 46.538 72.5259 48.2436 75.0339 48.2436Z" stroke="#FFFE04" stroke-width="8" stroke-linecap="round" stroke-linejoin="round"/>
<path d="M108.387 29.3099C107.629 27.6665 106.508 26.1725 105.09 24.9147C103.673 23.6568 101.986 22.6601 100.129 21.9824" stroke="#FFFE04" stroke-width="8" stroke-linecap="round" stroke-linejoin="round"/>
<path d="M119.742 23.0292C118.403 20.6814 116.437 18.5482 113.957 16.7519C111.477 14.9556 108.532 13.5315 105.29 12.5614" stroke="#FFFE04" stroke-width="8" stroke-linecap="round" stroke-linejoin="round"/>
</g>
<path d="M19 50H20" stroke="#FCFFB2" stroke-width="5" stroke-linecap="round"/>
<path d="M19 50H20" stroke="#FFFFE3" stroke-width="4" stroke-linecap="round"/>
<path d="M75 50H76" stroke="#FCFFB2" stroke-width="5" stroke-linecap="round"/>
<path d="M75 50H76" stroke="#FFFFE3" stroke-width="4" stroke-linecap="round"/>
<path d="M99 50H100" stroke="#FCFFB2" stroke-width="5" stroke-linecap="round"/>
<path d="M99 50H100" stroke="#FFFFE3" stroke-width="4" stroke-linecap="round"/>
<defs>
<clipPath id="clip0_8_163">
<rect width="113.548" height="95.2572" fill="white" transform="translate(0 13.6082)"/>
</clipPath>
<clipPath id="clip1_8_163">
<rect width="113.548" height="95.2572" fill="white" transform="translate(4.12903 8.37426)"/>
</clipPath>
<clipPath id="clip2_8_163">
<rect width="113.548" height="95.2572" fill="white" transform="translate(10.3226 3.14035)"/>
</clipPath>
<clipPath id="clip3_8_163">
<rect width="113.548" height="95.2572" fill="white" transform="translate(14.4516)"/>
</clipPath>
</defs>
</svg>
